<svg xmlns="http://www.w3.org/2000/svg" viewBox="226.87 484.25 261.09 52.99" width="261.09" height="52.99">
<title>Hankuk University of Foreign Studies</title>
<g fill="#00284A">
<path d="M299.16 525.38L299.16 522.76C299.16 522.55 299.13 522.4 299.08 522.27C299.02 522.17 298.94 522.08 298.85 522.02C298.75 521.97 298.63 521.93 298.52 521.9C298.39 521.89 298.26 521.88 298.13 521.88L298.13 521.4L298.57 521.4C298.72 521.42 298.89 521.42 299.07 521.42C299.22 521.43 299.39 521.43 299.55 521.43L299.97 521.43C300.08 521.43 300.21 521.43 300.36 521.42L300.81 521.42C300.96 521.42 301.1 521.42 301.25 521.4L301.65 521.4L301.65 521.88C301.51 521.88 301.38 521.89 301.25 521.9C301.13 521.93 301.01 521.97 300.92 522.02C300.82 522.08 300.76 522.17 300.7 522.27C300.64 522.4 300.61 522.55 300.61 522.76L300.61 529.43C300.61 529.64 300.64 529.8 300.7 529.91C300.76 530.03 300.82 530.11 300.92 530.16C301.01 530.23 301.13 530.26 301.25 530.28C301.38 530.3 301.51 530.3 301.65 530.3L301.65 530.78C301.41 530.76 301.13 530.76 300.79 530.76C300.46 530.75 300.17 530.75 299.94 530.75C299.68 530.75 299.39 530.75 299.05 530.76C298.7 530.76 298.39 530.76 298.13 530.78L298.13 530.3C298.26 530.3 298.39 530.3 298.52 530.28C298.63 530.26 298.75 530.23 298.85 530.16C298.94 530.11 299.02 530.03 299.08 529.91C299.13 529.8 299.16 529.64 299.16 529.43L299.16 526.19L295.08 526.19L295.08 529.43C295.08 529.64 295.1 529.8 295.17 529.91C295.22 530.03 295.28 530.11 295.38 530.16C295.47 530.23 295.59 530.26 295.72 530.28C295.84 530.3 295.97 530.3 296.11 530.3L296.11 530.78L295.7 530.78C295.55 530.76 295.4 530.76 295.24 530.76L294.8 530.76C294.64 530.75 294.5 530.75 294.4 530.75L293.98 530.75C293.81 530.75 293.65 530.75 293.49 530.76C293.33 530.76 293.17 530.76 293.02 530.78L292.6 530.78L292.6 530.3C292.72 530.3 292.85 530.3 292.98 530.28C293.1 530.26 293.21 530.23 293.31 530.16C293.4 530.11 293.48 530.03 293.54 529.91C293.59 529.8 293.62 529.64 293.62 529.43L293.62 522.76C293.62 522.55 293.59 522.4 293.54 522.27C293.48 522.17 293.4 522.08 293.31 522.02C293.21 521.97 293.1 521.93 292.98 521.9C292.85 521.89 292.72 521.88 292.6 521.88L292.6 521.4C292.83 521.42 293.12 521.42 293.47 521.42C293.8 521.43 294.08 521.43 294.32 521.43L294.74 521.43C294.9 521.43 295.05 521.43 295.22 521.42C295.37 521.42 295.54 521.42 295.69 521.4L296.11 521.4L296.11 521.88C295.97 521.88 295.84 521.89 295.72 521.9C295.59 521.93 295.47 521.97 295.38 522.02C295.28 522.08 295.22 522.17 295.17 522.27C295.1 522.4 295.08 522.55 295.08 522.76L295.08 525.38Z"/>
<path d="M304.24 527.93L305.79 527.93L305 525.56L304.98 525.56ZM307.16 529.12C307.18 529.2 307.21 529.29 307.24 529.39C307.28 529.5 307.31 529.61 307.36 529.71C307.39 529.82 307.42 529.92 307.46 530.01C307.49 530.1 307.52 530.17 307.55 530.2C307.6 530.3 307.7 530.37 307.82 530.4C307.94 530.43 308.05 530.45 308.17 530.45L308.17 530.65L307.94 530.65C307.84 530.64 307.75 530.64 307.65 530.64L307.38 530.64C307.29 530.63 307.21 530.63 307.14 530.63L306.85 530.63C306.74 530.63 306.63 530.63 306.53 530.64C306.41 530.64 306.3 530.64 306.2 530.65L305.91 530.65L305.91 530.45L306.09 530.45C306.18 530.45 306.26 530.43 306.35 530.38C306.43 530.35 306.47 530.27 306.47 530.16C306.47 530.13 306.45 530.06 306.43 529.96C306.41 529.88 306.38 529.79 306.36 529.72L305.96 528.48L304.06 528.48L303.84 529.17C303.79 529.34 303.75 529.5 303.71 529.67C303.66 529.84 303.65 529.97 303.65 530.08C303.65 530.25 303.69 530.35 303.79 530.38C303.88 530.43 303.99 530.45 304.11 530.45L304.33 530.45L304.33 530.65L304.1 530.65C304 530.64 303.91 530.64 303.82 530.64L303.54 530.64C303.45 530.63 303.37 530.63 303.3 530.63C303.16 530.63 302.99 530.63 302.78 530.64C302.57 530.64 302.39 530.64 302.26 530.65L302.26 530.45C302.46 530.42 302.62 530.37 302.73 530.31C302.84 530.24 302.93 530.11 303.01 529.91C303.07 529.77 303.13 529.62 303.18 529.47C303.22 529.33 303.26 529.19 303.31 529.05L304.52 525.38C304.55 525.29 304.58 525.18 304.62 525.04C304.65 524.92 304.67 524.8 304.67 524.69L304.67 524.56C304.66 524.51 304.65 524.48 304.65 524.45C304.76 524.42 304.89 524.38 305.04 524.33C305.19 524.28 305.33 524.22 305.46 524.15L305.51 524.15Z"/>
<path d="M314.6 530.72L314.1 530.72L309.97 525.65L309.97 529.04C309.97 529.31 309.98 529.52 310 529.68C310.02 529.85 310.06 529.99 310.13 530.08C310.19 530.18 310.29 530.24 310.41 530.27C310.53 530.32 310.68 530.33 310.87 530.33L310.87 530.65C310.71 530.65 310.53 530.64 310.32 530.64C310.1 530.63 309.92 530.63 309.77 530.63L309.5 530.63C309.4 530.63 309.31 530.63 309.2 530.64C309.1 530.64 309 530.64 308.9 530.65L308.64 530.65L308.64 530.33C308.74 530.33 308.84 530.33 308.95 530.32C309.04 530.31 309.13 530.26 309.2 530.2C309.27 530.14 309.33 530.03 309.38 529.9C309.42 529.77 309.45 529.58 309.45 529.33L309.45 525.64C309.45 525.32 309.37 525.08 309.22 524.92C309.06 524.79 308.83 524.71 308.53 524.71L308.53 524.4C308.63 524.4 308.76 524.4 308.93 524.4C309.08 524.41 309.22 524.41 309.34 524.41C309.38 524.41 309.44 524.41 309.53 524.4C309.6 524.4 309.69 524.4 309.77 524.4C309.85 524.4 309.93 524.4 310.01 524.39C310.09 524.39 310.15 524.38 310.2 524.36L314.08 529.13L314.08 525.67C314.08 525.33 314.01 525.08 313.89 524.93C313.75 524.8 313.51 524.72 313.17 524.71L313.17 524.4C313.33 524.4 313.52 524.4 313.74 524.4C313.95 524.41 314.14 524.41 314.31 524.41C314.45 524.41 314.61 524.41 314.82 524.4C315.01 524.4 315.18 524.4 315.32 524.4L315.32 524.71C315.21 524.71 315.11 524.72 315.03 524.73C314.93 524.75 314.86 524.79 314.8 524.84C314.73 524.9 314.69 524.98 314.65 525.09C314.62 525.2 314.6 525.34 314.6 525.53Z"/>
<path d="M315.75 530.33C315.83 530.33 315.92 530.33 316.01 530.31C316.08 530.31 316.16 530.28 316.23 530.24C316.29 530.2 316.34 530.15 316.38 530.07C316.41 530 316.43 529.89 316.43 529.75L316.43 525.3C316.43 525.16 316.41 525.06 316.38 524.98C316.34 524.91 316.29 524.85 316.23 524.81C316.16 524.77 316.08 524.75 316.01 524.73C315.92 524.72 315.83 524.71 315.75 524.71L315.75 524.4C315.9 524.4 316.1 524.4 316.33 524.4C316.55 524.41 316.74 524.41 316.9 524.41L317.17 524.41C317.27 524.41 317.38 524.41 317.48 524.4C317.57 524.4 317.67 524.4 317.76 524.4L317.99 524.4L317.99 524.71C317.92 524.71 317.86 524.72 317.79 524.73C317.72 524.75 317.65 524.77 317.6 524.81C317.53 524.85 317.49 524.91 317.45 524.98C317.42 525.06 317.4 525.16 317.4 525.3L317.39 527.21L319.19 525.31C319.2 525.29 319.24 525.25 319.29 525.2C319.32 525.15 319.36 525.1 319.41 525.05C319.44 525.01 319.47 524.97 319.5 524.92C319.53 524.87 319.54 524.84 319.54 524.81C319.54 524.76 319.49 524.74 319.39 524.72C319.29 524.72 319.19 524.71 319.09 524.71L319.09 524.4C319.25 524.4 319.41 524.4 319.6 524.4C319.77 524.41 319.94 524.41 320.09 524.41L320.33 524.41C320.42 524.41 320.52 524.41 320.64 524.4C320.74 524.4 320.84 524.4 320.94 524.4L321.17 524.4L321.17 524.71C321.07 524.71 320.98 524.72 320.88 524.74C320.78 524.75 320.67 524.8 320.57 524.85C320.45 524.91 320.33 524.98 320.2 525.09C320.06 525.19 319.92 525.33 319.76 525.5L318.11 527.22L320.64 530.04C320.69 530.11 320.76 530.16 320.83 530.2C320.9 530.24 320.98 530.26 321.05 530.28C321.12 530.31 321.2 530.32 321.27 530.32C321.34 530.33 321.39 530.33 321.45 530.33L321.45 530.65L321.19 530.65C321.09 530.64 320.99 530.64 320.88 530.64L320.58 530.64L320.35 530.64C320.17 530.64 320.01 530.61 319.91 530.58C319.79 530.54 319.69 530.46 319.6 530.35L317.4 527.87L317.4 529.75C317.4 529.89 317.42 530 317.45 530.07C317.49 530.15 317.53 530.2 317.6 530.24C317.65 530.28 317.72 530.31 317.8 530.31C317.86 530.33 317.94 530.33 318.02 530.33L318.02 530.65L317.79 530.65C317.69 530.64 317.6 530.64 317.51 530.64L317.21 530.64C317.11 530.63 317.02 530.63 316.95 530.63L316.67 530.63C316.56 530.63 316.45 530.63 316.35 530.64C316.23 530.64 316.13 530.64 316.03 530.65L315.75 530.65Z"/>
<path d="M327.41 524.71C327.28 524.71 327.17 524.74 327.09 524.78C327 524.83 326.94 524.9 326.9 524.99C326.85 525.1 326.83 525.23 326.82 525.39C326.8 525.55 326.8 525.74 326.8 525.97L326.8 528.4C326.8 528.75 326.75 529.09 326.66 529.38C326.57 529.68 326.43 529.92 326.26 530.13C326.08 530.34 325.86 530.49 325.61 530.61C325.33 530.73 325.03 530.78 324.68 530.78C324.36 530.78 324.06 530.73 323.8 530.64C323.52 530.54 323.3 530.38 323.11 530.18C322.92 529.98 322.77 529.73 322.67 529.41C322.57 529.1 322.52 528.73 322.52 528.3L322.52 525.3C322.52 525.16 322.5 525.06 322.47 524.98C322.42 524.91 322.37 524.85 322.31 524.81C322.24 524.77 322.17 524.75 322.09 524.73C322.01 524.72 321.91 524.71 321.83 524.71L321.83 524.4C321.99 524.4 322.19 524.4 322.42 524.4C322.64 524.41 322.82 524.41 322.99 524.41L323.27 524.41C323.37 524.41 323.47 524.41 323.59 524.4C323.69 524.4 323.81 524.4 323.91 524.4L324.19 524.4L324.19 524.71C324.1 524.71 324.01 524.72 323.93 524.73C323.84 524.75 323.76 524.77 323.7 524.81C323.64 524.85 323.58 524.91 323.55 524.98C323.51 525.06 323.49 525.16 323.49 525.3L323.49 528.11C323.49 528.77 323.6 529.29 323.84 529.67C324.07 530.05 324.41 530.24 324.86 530.24C325.1 530.24 325.32 530.19 325.49 530.08C325.67 529.97 325.8 529.84 325.91 529.67C326.01 529.5 326.09 529.3 326.14 529.08C326.19 528.86 326.21 528.64 326.21 528.4L326.21 526C326.21 525.69 326.2 525.44 326.19 525.27C326.17 525.1 326.13 524.98 326.08 524.89C326.03 524.81 325.96 524.76 325.86 524.75C325.76 524.73 325.63 524.72 325.48 524.71L325.48 524.4C325.62 524.4 325.8 524.4 326.01 524.4C326.22 524.41 326.39 524.41 326.54 524.41C326.66 524.41 326.81 524.41 326.98 524.4C327.15 524.4 327.29 524.4 327.41 524.4Z"/>
<path d="M327.82 530.33C327.9 530.33 327.99 530.33 328.08 530.31C328.15 530.31 328.23 530.28 328.3 530.24C328.36 530.2 328.41 530.15 328.45 530.07C328.48 530 328.5 529.89 328.5 529.75L328.5 525.3C328.5 525.16 328.48 525.06 328.45 524.98C328.41 524.91 328.36 524.85 328.3 524.81C328.23 524.77 328.15 524.75 328.08 524.73C327.99 524.72 327.9 524.71 327.82 524.71L327.82 524.4C327.97 524.4 328.17 524.4 328.4 524.4C328.62 524.41 328.81 524.41 328.97 524.41L329.24 524.41C329.35 524.41 329.45 524.41 329.55 524.4C329.64 524.4 329.74 524.4 329.83 524.4L330.06 524.4L330.06 524.71C329.99 524.71 329.93 524.72 329.86 524.73C329.79 524.75 329.72 524.77 329.67 524.81C329.6 524.85 329.56 524.91 329.53 524.98C329.49 525.06 329.47 525.16 329.47 525.3L329.46 527.21L331.26 525.31C331.27 525.29 331.31 525.25 331.36 525.2C331.39 525.15 331.44 525.1 331.48 525.05C331.51 525.01 331.54 524.97 331.57 524.92C331.6 524.87 331.62 524.84 331.62 524.81C331.62 524.76 331.56 524.74 331.46 524.72C331.36 524.72 331.26 524.71 331.16 524.71L331.16 524.4C331.32 524.4 331.48 524.4 331.67 524.4C331.84 524.41 332.01 524.41 332.16 524.41L332.4 524.41C332.49 524.41 332.6 524.41 332.71 524.4C332.81 524.4 332.91 524.4 333.01 524.4L333.24 524.4L333.24 524.71C333.14 524.71 333.05 524.72 332.95 524.74C332.85 524.75 332.74 524.8 332.64 524.85C332.52 524.91 332.4 524.98 332.27 525.09C332.13 525.19 331.99 525.33 331.83 525.5L330.18 527.22L332.71 530.04C332.76 530.11 332.83 530.16 332.9 530.2C332.97 530.24 333.05 530.26 333.13 530.28C333.19 530.31 333.27 530.32 333.34 530.32C333.41 530.33 333.47 530.33 333.52 530.33L333.52 530.65L333.26 530.65C333.16 530.64 333.06 530.64 332.95 530.64L332.66 530.64L332.42 530.64C332.24 530.64 332.08 530.61 331.98 530.58C331.86 530.54 331.76 530.46 331.67 530.35L329.47 527.87L329.47 529.75C329.47 529.89 329.49 530 329.53 530.07C329.56 530.15 329.6 530.2 329.67 530.24C329.72 530.28 329.79 530.31 329.87 530.31C329.93 530.33 330.01 530.33 330.09 530.33L330.09 530.65L329.86 530.65C329.76 530.64 329.67 530.64 329.58 530.64L329.28 530.64C329.18 530.63 329.09 530.63 329.02 530.63L328.74 530.63C328.63 530.63 328.52 530.63 328.42 530.64C328.31 530.64 328.2 530.64 328.1 530.65L327.82 530.65Z"/>
<path d="M344.9 521.88C344.7 521.88 344.53 521.91 344.42 521.98C344.29 522.06 344.19 522.16 344.13 522.3C344.06 522.45 344.02 522.66 344.01 522.89C343.98 523.13 343.98 523.42 343.98 523.77L343.98 527.4C343.98 527.94 343.9 528.44 343.78 528.87C343.64 529.32 343.43 529.69 343.17 530C342.91 530.32 342.57 530.55 342.19 530.72C341.78 530.89 341.32 530.98 340.81 530.98C340.32 530.98 339.88 530.9 339.48 530.76C339.07 530.61 338.74 530.38 338.46 530.07C338.16 529.78 337.95 529.4 337.79 528.92C337.64 528.46 337.56 527.9 337.56 527.26L337.56 522.76C337.56 522.55 337.54 522.4 337.49 522.27C337.42 522.17 337.34 522.08 337.25 522.02C337.15 521.97 337.04 521.93 336.92 521.9C336.79 521.89 336.65 521.88 336.53 521.88L336.53 521.4C336.77 521.42 337.06 521.42 337.41 521.42C337.74 521.43 338.02 521.43 338.26 521.43L338.69 521.43C338.84 521.43 338.99 521.43 339.17 521.42C339.33 521.42 339.49 521.42 339.65 521.4L340.07 521.4L340.07 521.88C339.93 521.88 339.8 521.89 339.67 521.9C339.54 521.93 339.43 521.97 339.34 522.02C339.24 522.08 339.16 522.17 339.11 522.27C339.04 522.4 339.02 522.55 339.02 522.76L339.02 526.98C339.02 527.96 339.19 528.74 339.54 529.31C339.89 529.88 340.4 530.16 341.08 530.16C341.44 530.16 341.76 530.09 342.02 529.92C342.28 529.77 342.48 529.56 342.65 529.31C342.8 529.05 342.92 528.76 343 528.42C343.06 528.09 343.1 527.76 343.1 527.4L343.1 523.81C343.1 523.35 343.09 522.98 343.06 522.71C343.03 522.45 342.98 522.27 342.91 522.15C342.83 522.03 342.71 521.95 342.57 521.93C342.42 521.9 342.23 521.89 342 521.88L342 521.4C342.22 521.42 342.48 521.42 342.8 521.42C343.11 521.43 343.37 521.43 343.6 521.43C343.78 521.43 343.99 521.43 344.25 521.42C344.5 521.42 344.72 521.4 344.9 521.4Z"/>
<path d="M351.36 530.72L350.86 530.72L346.73 525.65L346.73 529.04C346.73 529.31 346.74 529.52 346.76 529.68C346.78 529.85 346.82 529.99 346.89 530.08C346.95 530.18 347.05 530.24 347.17 530.27C347.29 530.32 347.44 530.33 347.63 530.33L347.63 530.65C347.47 530.65 347.29 530.64 347.08 530.64C346.86 530.63 346.68 530.63 346.53 530.63L346.26 530.63C346.16 530.63 346.07 530.63 345.96 530.64C345.86 530.64 345.76 530.64 345.66 530.65L345.4 530.65L345.4 530.33C345.5 530.33 345.6 530.33 345.71 530.32C345.8 530.31 345.89 530.26 345.96 530.2C346.03 530.14 346.09 530.03 346.14 529.9C346.18 529.77 346.21 529.58 346.21 529.33L346.21 525.64C346.21 525.32 346.13 525.08 345.98 524.92C345.82 524.79 345.59 524.71 345.29 524.71L345.29 524.4C345.39 524.4 345.52 524.4 345.69 524.4C345.84 524.41 345.98 524.41 346.1 524.41C346.14 524.41 346.2 524.41 346.29 524.4C346.36 524.4 346.45 524.4 346.53 524.4C346.61 524.4 346.69 524.4 346.77 524.39C346.85 524.39 346.91 524.38 346.96 524.36L350.84 529.13L350.84 525.67C350.84 525.33 350.77 525.08 350.65 524.93C350.51 524.8 350.27 524.72 349.93 524.71L349.93 524.4C350.09 524.4 350.28 524.4 350.5 524.4C350.71 524.41 350.9 524.41 351.07 524.41C351.21 524.41 351.37 524.41 351.58 524.4C351.77 524.4 351.94 524.4 352.08 524.4L352.08 524.71C351.97 524.71 351.87 524.72 351.79 524.73C351.69 524.75 351.62 524.79 351.56 524.84C351.49 524.9 351.45 524.98 351.41 525.09C351.38 525.2 351.36 525.34 351.36 525.53Z"/>
<path d="M353.19 525.3C353.19 525.16 353.17 525.06 353.14 524.98C353.1 524.91 353.05 524.85 352.99 524.81C352.92 524.77 352.84 524.75 352.76 524.73C352.68 524.72 352.59 524.71 352.51 524.71L352.51 524.4C352.66 524.4 352.86 524.4 353.09 524.4C353.31 524.41 353.5 524.41 353.66 524.41L353.94 524.41C354.04 524.41 354.15 524.41 354.26 524.4C354.36 524.4 354.47 524.4 354.57 524.4L354.85 524.4L354.85 524.71C354.76 524.71 354.67 524.72 354.59 524.73C354.5 524.75 354.43 524.77 354.37 524.81C354.3 524.85 354.26 524.91 354.22 524.98C354.18 525.06 354.16 525.16 354.16 525.3L354.16 529.75C354.16 529.89 354.18 530 354.22 530.07C354.26 530.15 354.3 530.2 354.37 530.24C354.43 530.28 354.5 530.31 354.59 530.32C354.67 530.33 354.76 530.33 354.85 530.33L354.85 530.65L354.58 530.65C354.48 530.64 354.38 530.64 354.27 530.64L353.98 530.64C353.87 530.63 353.78 530.63 353.71 530.63L353.43 530.63C353.32 530.63 353.21 530.63 353.11 530.64C353 530.64 352.89 530.64 352.79 530.65L352.51 530.65L352.51 530.33C352.59 530.33 352.68 530.33 352.76 530.32C352.84 530.31 352.92 530.28 352.99 530.24C353.05 530.2 353.1 530.15 353.14 530.07C353.17 530 353.19 529.89 353.19 529.75Z"/>
<path d="M358.49 529.04L359.78 525.3C359.82 525.21 359.83 525.14 359.83 525.05C359.83 524.98 359.81 524.92 359.77 524.87C359.73 524.84 359.68 524.81 359.63 524.78C359.56 524.76 359.5 524.75 359.43 524.73C359.37 524.73 359.3 524.72 359.25 524.71L359.25 524.4L359.48 524.4C359.57 524.4 359.66 524.4 359.75 524.4C359.83 524.41 359.92 524.41 360.01 524.41L360.24 524.41C360.35 524.41 360.49 524.41 360.67 524.4C360.84 524.4 360.98 524.4 361.1 524.4L361.1 524.71C360.98 524.71 360.86 524.75 360.74 524.81C360.61 524.89 360.53 524.98 360.49 525.1L358.38 530.78L358.06 530.78L356.06 525.35C355.98 525.12 355.88 524.96 355.76 524.86C355.63 524.76 355.45 524.71 355.22 524.71L355.22 524.4L355.51 524.4C355.61 524.4 355.71 524.4 355.83 524.4C355.94 524.41 356.05 524.41 356.16 524.41L356.44 524.41C356.51 524.41 356.59 524.41 356.7 524.4L356.99 524.4C357.08 524.4 357.17 524.4 357.28 524.4L357.53 524.4L357.53 524.71C357.47 524.72 357.41 524.72 357.34 524.72C357.28 524.72 357.22 524.73 357.17 524.74C357.11 524.74 357.08 524.75 357.05 524.78C357.01 524.81 356.99 524.87 356.99 524.94C356.99 524.98 356.99 525 357.01 525.03C357.01 525.06 357.02 525.1 357.03 525.11L358.46 529.04Z"/>
<path d="M363.2 527.09L364.01 527.09C364.15 527.09 364.25 527.07 364.33 527.02C364.41 526.99 364.47 526.93 364.52 526.86C364.56 526.8 364.59 526.73 364.61 526.66C364.62 526.59 364.62 526.53 364.62 526.48L364.89 526.48C364.88 526.53 364.88 526.59 364.88 526.66C364.87 526.73 364.87 526.81 364.87 526.9C364.86 526.99 364.86 527.08 364.86 527.17L364.86 527.41C364.86 527.53 364.86 527.69 364.88 527.86C364.88 528.05 364.89 528.2 364.89 528.32L364.62 528.32C364.62 528.16 364.61 528.03 364.58 527.93C364.55 527.84 364.5 527.77 364.44 527.72C364.37 527.68 364.28 527.65 364.19 527.64C364.09 527.64 363.97 527.63 363.83 527.63L363.2 527.63L363.2 529.33C363.2 529.47 363.2 529.59 363.22 529.69C363.22 529.8 363.24 529.89 363.28 529.96C363.3 530.03 363.35 530.08 363.41 530.11C363.46 530.15 363.54 530.17 363.64 530.17L364.41 530.17C364.57 530.17 364.71 530.16 364.83 530.14C364.94 530.12 365.04 530.08 365.13 530.01C365.21 529.96 365.28 529.87 365.35 529.77C365.41 529.67 365.47 529.54 365.54 529.39L365.83 529.41C365.79 529.61 365.76 529.81 365.72 530.03C365.69 530.25 365.66 530.44 365.64 530.65L365.03 530.65C364.81 530.64 364.6 530.64 364.39 530.64L363.74 530.64C363.51 530.63 363.31 530.63 363.12 530.63L362.31 530.63C362.03 530.63 361.76 530.63 361.5 530.65L361.5 530.33C361.66 530.33 361.78 530.32 361.88 530.3C361.96 530.28 362.04 530.23 362.09 530.16C362.14 530.1 362.18 530.01 362.2 529.89C362.22 529.78 362.23 529.62 362.23 529.44L362.23 525.43C362.23 525.27 362.21 525.15 362.19 525.05C362.17 524.97 362.13 524.89 362.07 524.84C362.01 524.8 361.94 524.76 361.85 524.75C361.75 524.73 361.64 524.72 361.5 524.71L361.5 524.4C361.74 524.41 361.99 524.41 362.24 524.41L362.98 524.41L363.58 524.41L364.22 524.41C364.44 524.41 364.65 524.41 364.86 524.4C365.07 524.4 365.27 524.4 365.46 524.4L365.46 525.61L365.2 525.64C365.14 525.37 365.05 525.17 364.91 525.05C364.76 524.93 364.52 524.87 364.18 524.87L363.2 524.87Z"/>
<path d="M368 527.25C368.13 527.29 368.26 527.3 368.39 527.3C368.58 527.3 368.74 527.26 368.88 527.19C369.01 527.12 369.13 527.02 369.22 526.9C369.3 526.79 369.36 526.66 369.41 526.51C369.46 526.37 369.48 526.23 369.48 526.08C369.48 525.7 369.4 525.41 369.23 525.21C369.06 525.01 368.81 524.9 368.48 524.88C368.43 524.88 368.39 524.87 368.34 524.87L368.18 524.87C368.14 524.88 368.12 524.89 368.09 524.89C368.06 524.9 368.02 524.91 368 524.91ZM366.34 524.4C366.48 524.4 366.62 524.4 366.77 524.4C366.91 524.41 367.04 524.41 367.18 524.41L367.54 524.41C367.59 524.41 367.64 524.41 367.69 524.4L367.85 524.4C367.97 524.4 368.11 524.4 368.26 524.4C368.39 524.4 368.54 524.4 368.71 524.41C369.04 524.43 369.31 524.48 369.54 524.57C369.76 524.66 369.95 524.78 370.1 524.92C370.23 525.06 370.33 525.22 370.39 525.39C370.45 525.58 370.49 525.77 370.49 525.96C370.49 526.35 370.39 526.67 370.21 526.93C370.01 527.2 369.75 527.4 369.41 527.53L370.97 529.89C371.05 530.03 371.18 530.15 371.33 530.21C371.49 530.3 371.67 530.33 371.88 530.33L371.88 530.65C371.61 530.65 371.37 530.64 371.16 530.64C370.96 530.63 370.78 530.61 370.63 530.59C370.48 530.55 370.35 530.5 370.24 530.44C370.13 530.38 370.04 530.28 369.97 530.16L368.41 527.7C368.37 527.71 368.35 527.71 368.31 527.71C368.27 527.71 368.24 527.71 368.2 527.71C368.17 527.71 368.13 527.71 368.1 527.71C368.06 527.71 368.02 527.71 368 527.7L368 529.75C368 529.89 368.02 530 368.06 530.07C368.09 530.15 368.15 530.2 368.22 530.24C368.28 530.28 368.36 530.31 368.44 530.31C368.52 530.33 368.6 530.33 368.69 530.33L368.69 530.65L368.47 530.65C368.36 530.64 368.26 530.64 368.15 530.64L367.8 530.64C367.68 530.63 367.59 530.63 367.51 530.63L367.15 530.63C367.03 530.63 366.89 530.63 366.75 530.64C366.6 530.64 366.46 530.64 366.34 530.65L366.34 530.33C366.42 530.33 366.51 530.32 366.59 530.31C366.68 530.3 366.74 530.27 366.81 530.23C366.87 530.2 366.92 530.14 366.97 530.06C367 529.99 367.03 529.91 367.03 529.79L367.03 529.64L367.03 525.34C367.03 525.21 367.01 525.1 366.98 525.01C366.94 524.93 366.89 524.87 366.84 524.82C366.77 524.78 366.7 524.75 366.62 524.73C366.53 524.72 366.44 524.71 366.34 524.71Z"/>
<path d="M372.49 529.23L372.75 529.21C372.81 529.53 372.97 529.8 373.22 530C373.46 530.2 373.77 530.31 374.14 530.31C374.3 530.31 374.45 530.29 374.62 530.25C374.78 530.21 374.92 530.15 375.06 530.07C375.19 529.99 375.3 529.89 375.38 529.75C375.46 529.63 375.5 529.47 375.5 529.28C375.5 529.04 375.43 528.83 375.3 528.68C375.16 528.52 374.99 528.39 374.79 528.27C374.59 528.15 374.37 528.04 374.14 527.93C373.9 527.82 373.68 527.69 373.48 527.53C373.27 527.37 373.1 527.17 372.97 526.93C372.83 526.7 372.76 526.4 372.76 526.02C372.76 525.69 372.81 525.41 372.92 525.18C373.02 524.96 373.16 524.78 373.34 524.64C373.51 524.51 373.73 524.41 373.97 524.34C374.21 524.29 374.47 524.26 374.75 524.26C374.99 524.26 375.24 524.28 375.48 524.31C375.72 524.34 375.95 524.37 376.17 524.37L376.24 525.54L375.97 525.55C375.89 525.27 375.75 525.06 375.57 524.92C375.38 524.8 375.13 524.74 374.83 524.74C374.66 524.74 374.49 524.76 374.35 524.8C374.2 524.85 374.07 524.91 373.96 524.99C373.85 525.08 373.76 525.19 373.7 525.31C373.63 525.44 373.61 525.58 373.61 525.74C373.61 526.02 373.68 526.23 373.82 526.39C373.96 526.56 374.13 526.7 374.34 526.82C374.55 526.95 374.77 527.07 375.01 527.17C375.25 527.29 375.48 527.42 375.7 527.57C375.9 527.72 376.07 527.91 376.22 528.13C376.35 528.35 376.42 528.64 376.42 528.99C376.42 529.33 376.35 529.62 376.23 529.84C376.11 530.07 375.94 530.25 375.74 530.39C375.54 530.53 375.3 530.63 375.04 530.7C374.78 530.75 374.51 530.78 374.24 530.78C374.09 530.78 373.94 530.77 373.79 530.75C373.62 530.72 373.47 530.7 373.33 530.67C373.17 530.64 373.04 530.6 372.92 530.57C372.78 530.54 372.67 530.5 372.58 530.49Z"/>
<path d="M377.8 525.3C377.8 525.16 377.78 525.06 377.75 524.98C377.71 524.91 377.66 524.85 377.6 524.81C377.53 524.77 377.45 524.75 377.37 524.73C377.29 524.72 377.2 524.71 377.12 524.71L377.12 524.4C377.27 524.4 377.47 524.4 377.7 524.4C377.92 524.41 378.11 524.41 378.27 524.41L378.55 524.41C378.65 524.41 378.76 524.41 378.87 524.4C378.97 524.4 379.08 524.4 379.18 524.4L379.46 524.4L379.46 524.71C379.37 524.71 379.28 524.72 379.2 524.73C379.11 524.75 379.04 524.77 378.98 524.81C378.91 524.85 378.87 524.91 378.83 524.98C378.79 525.06 378.77 525.16 378.77 525.3L378.77 529.75C378.77 529.89 378.79 530 378.83 530.07C378.87 530.15 378.91 530.2 378.98 530.24C379.04 530.28 379.11 530.31 379.2 530.32C379.28 530.33 379.37 530.33 379.46 530.33L379.46 530.65L379.19 530.65C379.09 530.64 378.99 530.64 378.88 530.64L378.58 530.64C378.48 530.63 378.39 530.63 378.32 530.63L378.04 530.63C377.93 530.63 377.82 530.63 377.71 530.64C377.6 530.64 377.5 530.64 377.4 530.65L377.12 530.65L377.12 530.33C377.2 530.33 377.29 530.33 377.37 530.32C377.45 530.31 377.53 530.28 377.6 530.24C377.66 530.2 377.71 530.15 377.75 530.07C377.78 530 377.8 529.89 377.8 529.75Z"/>
<path d="M384.6 525.69L384.3 525.69C384.3 525.59 384.29 525.5 384.28 525.4C384.26 525.32 384.23 525.23 384.2 525.16C384.15 525.09 384.09 525.04 384.02 525C383.93 524.97 383.82 524.94 383.68 524.94L382.72 524.94L382.72 529.75C382.72 529.89 382.74 530 382.78 530.07C382.81 530.15 382.87 530.2 382.93 530.24C382.99 530.28 383.07 530.31 383.15 530.31C383.24 530.33 383.33 530.33 383.42 530.33L383.42 530.65L383.15 530.65C383.04 530.64 382.94 530.64 382.84 530.64L382.53 530.64C382.43 530.63 382.34 530.63 382.27 530.63L381.99 530.63C381.88 530.63 381.76 530.63 381.66 530.64C381.54 530.64 381.44 530.64 381.34 530.65L381.05 530.65L381.05 530.33C381.13 530.33 381.23 530.33 381.31 530.31C381.4 530.31 381.47 530.28 381.54 530.24C381.6 530.2 381.65 530.15 381.7 530.07C381.73 530 381.75 529.89 381.75 529.75L381.75 524.94L380.95 524.94C380.78 524.94 380.66 524.96 380.58 524.98C380.49 525.02 380.42 525.07 380.38 525.13C380.33 525.2 380.3 525.27 380.28 525.36C380.25 525.46 380.23 525.57 380.21 525.69L379.91 525.69L379.93 524.28L380.25 524.28C380.28 524.34 380.31 524.38 380.37 524.38C380.41 524.4 380.49 524.4 380.63 524.4L383.91 524.4C384.14 524.4 384.26 524.36 384.3 524.28L384.63 524.28Z"/>
<path d="M388.53 529.75C388.53 529.89 388.55 530 388.59 530.07C388.63 530.15 388.68 530.2 388.75 530.24C388.81 530.28 388.88 530.31 388.97 530.31C389.05 530.33 389.13 530.33 389.22 530.33L389.22 530.65L388.94 530.65C388.84 530.64 388.73 530.64 388.63 530.64C388.52 530.63 388.42 530.63 388.31 530.63L388.03 530.63L387.77 530.63C387.66 530.63 387.56 530.63 387.46 530.64C387.35 530.64 387.25 530.64 387.14 530.65L386.87 530.65L386.87 530.33C386.96 530.33 387.05 530.33 387.14 530.31C387.22 530.31 387.29 530.28 387.36 530.24C387.42 530.2 387.47 530.15 387.51 530.07C387.55 530 387.57 529.89 387.57 529.75L387.57 527.66L385.76 524.97C385.71 524.9 385.67 524.85 385.63 524.8C385.57 524.76 385.53 524.73 385.48 524.7C385.42 524.69 385.36 524.68 385.29 524.66C385.22 524.65 385.14 524.64 385.05 524.63L385.05 524.4L385.25 524.4C385.34 524.4 385.46 524.4 385.57 524.4C385.69 524.41 385.81 524.41 385.94 524.41L386.24 524.41C386.31 524.41 386.39 524.41 386.49 524.4L386.77 524.4C386.86 524.4 386.96 524.4 387.06 524.4L387.31 524.4L387.31 524.63L387.19 524.63C387.14 524.63 387.08 524.64 387.04 524.64C386.99 524.66 386.95 524.68 386.91 524.69C386.87 524.72 386.85 524.75 386.85 524.79C386.85 524.84 386.87 524.9 386.92 524.98C386.97 525.07 387.02 525.16 387.08 525.27L388.24 527.06L389.36 525.4C389.4 525.34 389.46 525.26 389.53 525.15C389.6 525.04 389.64 524.94 389.64 524.85C389.64 524.74 389.58 524.67 389.49 524.65C389.39 524.63 389.25 524.63 389.07 524.63L389.07 524.4C389.21 524.4 389.37 524.4 389.57 524.4C389.75 524.41 389.93 524.41 390.06 524.41C390.1 524.41 390.16 524.41 390.23 524.4L390.44 524.4C390.51 524.4 390.59 524.4 390.66 524.4L390.84 524.4L390.84 524.63C390.68 524.63 390.56 524.68 390.47 524.76C390.37 524.86 390.27 524.96 390.2 525.07L388.53 527.55Z"/>
<path d="M395.23 527.24C395.23 527.46 395.25 527.68 395.28 527.91C395.31 528.15 395.35 528.38 395.42 528.6C395.48 528.83 395.56 529.04 395.66 529.25C395.75 529.45 395.87 529.63 396.01 529.79C396.14 529.95 396.29 530.08 396.46 530.16C396.63 530.26 396.82 530.31 397.04 530.31C397.31 530.31 397.56 530.25 397.79 530.13C398.01 530.01 398.21 529.84 398.37 529.62C398.53 529.4 398.65 529.14 398.75 528.83C398.83 528.52 398.88 528.18 398.88 527.8C398.88 527.49 398.84 527.15 398.77 526.78C398.7 526.43 398.59 526.1 398.46 525.79C398.3 525.5 398.12 525.24 397.89 525.04C397.66 524.84 397.38 524.74 397.07 524.74C396.79 524.74 396.54 524.8 396.32 524.92C396.09 525.04 395.89 525.21 395.74 525.42C395.57 525.64 395.45 525.91 395.37 526.21C395.28 526.52 395.23 526.87 395.23 527.24M394.17 527.56C394.17 527.15 394.24 526.75 394.38 526.35C394.51 525.96 394.7 525.61 394.95 525.29C395.2 524.98 395.51 524.74 395.86 524.54C396.22 524.35 396.62 524.26 397.07 524.26C397.48 524.26 397.85 524.35 398.21 524.52C398.55 524.7 398.86 524.94 399.11 525.23C399.37 525.54 399.57 525.88 399.72 526.26C399.86 526.66 399.93 527.06 399.93 527.48C399.93 527.89 399.86 528.29 399.74 528.69C399.6 529.09 399.4 529.44 399.16 529.74C398.9 530.06 398.6 530.31 398.24 530.5C397.89 530.69 397.48 530.78 397.04 530.78C396.63 530.78 396.25 530.69 395.91 530.52C395.55 530.35 395.25 530.11 394.99 529.8C394.74 529.51 394.53 529.17 394.4 528.78C394.24 528.4 394.17 527.99 394.17 527.56"/>
<path d="M402.47 529.78C402.47 529.91 402.49 530.02 402.52 530.09C402.55 530.17 402.59 530.22 402.65 530.26C402.7 530.29 402.77 530.31 402.85 530.31C402.93 530.33 403.02 530.33 403.11 530.33L403.11 530.65L402.82 530.65C402.7 530.64 402.59 530.64 402.47 530.64C402.35 530.63 402.23 530.63 402.13 530.63L401.84 530.63C401.68 530.63 401.51 530.63 401.32 530.64C401.13 530.64 400.95 530.64 400.78 530.65L400.78 530.33C400.93 530.33 401.04 530.32 401.15 530.3C401.23 530.28 401.31 530.23 401.36 530.16C401.41 530.1 401.45 530.01 401.47 529.89C401.49 529.78 401.5 529.62 401.5 529.44L401.5 525.43C401.5 525.27 401.48 525.15 401.46 525.05C401.44 524.97 401.39 524.89 401.34 524.84C401.28 524.8 401.21 524.76 401.12 524.75C401.02 524.73 400.91 524.72 400.78 524.71L400.78 524.4L401.18 524.4C401.32 524.4 401.46 524.4 401.62 524.4L402.06 524.4C402.2 524.41 402.33 524.41 402.47 524.41L403.02 524.41L403.6 524.41C403.79 524.41 403.99 524.41 404.18 524.4C404.37 524.4 404.56 524.4 404.73 524.4L404.77 525.54L404.49 525.56C404.46 525.33 404.36 525.15 404.23 525.04C404.07 524.93 403.82 524.87 403.47 524.87L402.47 524.87L402.47 527.09L403.3 527.09C403.43 527.09 403.55 527.08 403.65 527.06C403.73 527.04 403.8 527.01 403.85 526.96C403.9 526.92 403.94 526.86 403.97 526.78C403.99 526.71 404.01 526.62 404.04 526.51L404.32 526.51L404.32 526.66C404.31 526.74 404.31 526.82 404.31 526.9C404.3 526.99 404.3 527.08 404.3 527.17C404.29 527.26 404.29 527.34 404.29 527.41C404.29 527.47 404.29 527.54 404.3 527.62C404.3 527.71 404.3 527.78 404.31 527.86C404.31 527.94 404.31 528.02 404.32 528.09L404.32 528.28L404.06 528.28C404.04 528.17 404.02 528.07 404 527.99C403.98 527.91 403.95 527.84 403.89 527.78C403.84 527.73 403.77 527.7 403.69 527.66C403.6 527.65 403.48 527.63 403.32 527.63L402.47 527.63Z"/>
<path d="M410.63 529.47C410.63 529.68 410.65 529.84 410.71 529.95C410.74 530.06 410.81 530.14 410.9 530.19C410.98 530.24 411.08 530.28 411.2 530.28C411.32 530.3 411.45 530.3 411.59 530.3L411.59 530.78L411.15 530.78C410.98 530.76 410.81 530.76 410.63 530.76C410.45 530.75 410.27 530.75 410.12 530.75L409.68 530.75C409.44 530.75 409.18 530.75 408.9 530.76C408.62 530.76 408.35 530.76 408.1 530.78L408.1 530.3C408.32 530.3 408.49 530.29 408.65 530.25C408.78 530.23 408.89 530.15 408.97 530.05C409.04 529.96 409.1 529.82 409.13 529.64C409.16 529.47 409.17 529.24 409.17 528.96L409.17 522.95C409.17 522.72 409.15 522.53 409.12 522.39C409.08 522.26 409.02 522.15 408.94 522.07C408.85 522 408.74 521.95 408.61 521.93C408.46 521.9 408.29 521.89 408.1 521.88L408.1 521.4L408.7 521.4C408.9 521.42 409.12 521.42 409.35 521.42L410.02 521.42C410.22 521.43 410.43 521.43 410.63 521.43L411.45 521.43L412.33 521.43C412.61 521.43 412.91 521.43 413.2 521.42C413.48 521.42 413.76 521.42 414.02 521.4L414.08 523.12L413.66 523.16C413.61 522.8 413.47 522.54 413.26 522.36C413.03 522.21 412.66 522.12 412.13 522.12L410.63 522.12L410.63 525.44L411.87 525.44C412.07 525.44 412.25 525.43 412.39 525.39C412.52 525.37 412.62 525.33 412.7 525.25C412.78 525.19 412.83 525.1 412.88 524.98C412.91 524.88 412.94 524.74 412.98 524.57L413.4 524.57L413.4 524.8C413.39 524.92 413.39 525.03 413.39 525.16C413.38 525.29 413.38 525.43 413.38 525.56C413.37 525.7 413.37 525.81 413.37 525.92C413.37 526.02 413.37 526.12 413.38 526.24C413.38 526.36 413.38 526.48 413.39 526.59C413.39 526.72 413.39 526.84 413.4 526.94L413.4 527.22L413.01 527.22C412.98 527.07 412.96 526.91 412.93 526.79C412.89 526.67 412.84 526.57 412.77 526.48C412.69 526.4 412.59 526.35 412.46 526.3C412.32 526.28 412.14 526.25 411.91 526.25L410.63 526.25Z"/>
<path d="M416.13 527.24C416.13 527.46 416.14 527.68 416.18 527.91C416.2 528.15 416.24 528.38 416.31 528.6C416.37 528.83 416.45 529.04 416.55 529.25C416.64 529.45 416.77 529.63 416.9 529.79C417.03 529.95 417.18 530.08 417.35 530.16C417.52 530.26 417.71 530.31 417.93 530.31C418.21 530.31 418.45 530.25 418.68 530.13C418.91 530.01 419.1 529.84 419.27 529.62C419.42 529.4 419.55 529.14 419.64 528.83C419.73 528.52 419.77 528.18 419.77 527.8C419.77 527.49 419.73 527.15 419.67 526.78C419.6 526.43 419.49 526.1 419.35 525.79C419.2 525.5 419.01 525.24 418.79 525.04C418.55 524.84 418.27 524.74 417.96 524.74C417.69 524.74 417.43 524.8 417.21 524.92C416.98 525.04 416.78 525.21 416.63 525.42C416.47 525.64 416.35 525.91 416.26 526.21C416.17 526.52 416.13 526.87 416.13 527.24M415.07 527.56C415.07 527.15 415.14 526.75 415.27 526.35C415.4 525.96 415.59 525.61 415.84 525.29C416.09 524.98 416.4 524.74 416.76 524.54C417.11 524.35 417.52 524.26 417.96 524.26C418.37 524.26 418.74 524.35 419.1 524.52C419.44 524.7 419.75 524.94 420.01 525.23C420.26 525.54 420.46 525.88 420.61 526.26C420.75 526.66 420.83 527.06 420.83 527.48C420.83 527.89 420.76 528.29 420.63 528.69C420.49 529.09 420.3 529.44 420.05 529.74C419.79 530.06 419.49 530.31 419.14 530.5C418.78 530.69 418.38 530.78 417.93 530.78C417.52 530.78 417.14 530.69 416.8 530.52C416.44 530.35 416.14 530.11 415.89 529.8C415.63 529.51 415.43 529.17 415.29 528.78C415.14 528.4 415.07 527.99 415.07 527.56"/>
<path d="M423.36 527.25C423.49 527.29 423.62 527.3 423.76 527.3C423.94 527.3 424.1 527.26 424.24 527.19C424.38 527.12 424.49 527.02 424.58 526.9C424.67 526.79 424.73 526.66 424.78 526.51C424.82 526.37 424.85 526.23 424.85 526.08C424.85 525.7 424.76 525.41 424.59 525.21C424.42 525.01 424.17 524.9 423.85 524.88C423.8 524.88 423.76 524.87 423.7 524.87L423.54 524.87C423.51 524.88 423.48 524.89 423.46 524.89C423.42 524.9 423.39 524.91 423.36 524.91ZM421.71 524.4C421.84 524.4 421.98 524.4 422.14 524.4C422.27 524.41 422.41 524.41 422.54 524.41L422.9 524.41C422.95 524.41 423.01 524.41 423.06 524.4L423.22 524.4C423.34 524.4 423.47 524.4 423.62 524.4C423.76 524.4 423.91 524.4 424.08 524.41C424.4 524.43 424.68 524.48 424.91 524.57C425.13 524.66 425.32 524.78 425.46 524.92C425.6 525.06 425.69 525.22 425.76 525.39C425.82 525.58 425.85 525.77 425.85 525.96C425.85 526.35 425.76 526.67 425.57 526.93C425.38 527.2 425.11 527.4 424.77 527.53L426.33 529.89C426.42 530.03 426.55 530.15 426.7 530.21C426.85 530.3 427.03 530.33 427.24 530.33L427.24 530.65C426.97 530.65 426.73 530.64 426.53 530.64C426.32 530.63 426.14 530.61 426 530.59C425.84 530.55 425.71 530.5 425.61 530.44C425.5 530.38 425.4 530.28 425.33 530.16L423.77 527.7C423.74 527.71 423.71 527.71 423.68 527.71C423.64 527.71 423.6 527.71 423.57 527.71C423.53 527.71 423.5 527.71 423.47 527.71C423.42 527.71 423.39 527.71 423.36 527.7L423.36 529.75C423.36 529.89 423.38 530 423.42 530.07C423.46 530.15 423.52 530.2 423.59 530.24C423.64 530.28 423.72 530.31 423.81 530.31C423.88 530.33 423.97 530.33 424.05 530.33L424.05 530.65L423.83 530.65C423.73 530.64 423.63 530.64 423.52 530.64L423.17 530.64C423.05 530.63 422.95 530.63 422.88 530.63L422.52 530.63C422.39 530.63 422.25 530.63 422.12 530.64C421.96 530.64 421.83 530.64 421.71 530.65L421.71 530.33C421.79 530.33 421.87 530.32 421.96 530.31C422.04 530.3 422.11 530.27 422.18 530.23C422.24 530.2 422.29 530.14 422.33 530.06C422.37 529.99 422.39 529.91 422.39 529.79L422.39 529.64L422.39 525.34C422.39 525.21 422.37 525.1 422.34 525.01C422.31 524.93 422.25 524.87 422.2 524.82C422.14 524.78 422.07 524.75 421.98 524.73C421.9 524.72 421.8 524.71 421.71 524.71Z"/>
<path d="M429.43 527.09L430.24 527.09C430.38 527.09 430.48 527.07 430.57 527.02C430.64 526.99 430.7 526.93 430.75 526.86C430.79 526.8 430.82 526.73 430.84 526.66C430.85 526.59 430.86 526.53 430.86 526.48L431.12 526.48C431.11 526.53 431.11 526.59 431.11 526.66C431.1 526.73 431.1 526.81 431.1 526.9C431.1 526.99 431.1 527.08 431.1 527.17L431.1 527.41C431.1 527.53 431.1 527.69 431.11 527.86C431.11 528.05 431.12 528.2 431.12 528.32L430.86 528.32C430.86 528.16 430.84 528.03 430.81 527.93C430.78 527.84 430.73 527.77 430.67 527.72C430.6 527.68 430.52 527.65 430.42 527.64C430.32 527.64 430.2 527.63 430.06 527.63L429.43 527.63L429.43 529.33C429.43 529.47 429.43 529.59 429.45 529.69C429.45 529.8 429.47 529.89 429.51 529.96C429.53 530.03 429.58 530.08 429.65 530.11C429.7 530.15 429.77 530.17 429.87 530.17L430.64 530.17C430.81 530.17 430.94 530.16 431.06 530.14C431.17 530.12 431.27 530.08 431.36 530.01C431.45 529.96 431.51 529.87 431.58 529.77C431.64 529.67 431.7 529.54 431.77 529.39L432.06 529.41C432.03 529.61 431.99 529.81 431.96 530.03C431.92 530.25 431.89 530.44 431.87 530.65L431.27 530.65C431.04 530.64 430.83 530.64 430.62 530.64L429.97 530.64C429.75 530.63 429.54 530.63 429.36 530.63L428.54 530.63C428.26 530.63 427.99 530.63 427.73 530.65L427.73 530.33C427.89 530.33 428.01 530.32 428.11 530.3C428.2 530.28 428.27 530.23 428.32 530.16C428.37 530.1 428.41 530.01 428.43 529.89C428.45 529.78 428.46 529.62 428.46 529.44L428.46 525.43C428.46 525.27 428.44 525.15 428.43 525.05C428.4 524.97 428.36 524.89 428.31 524.84C428.25 524.8 428.17 524.76 428.08 524.75C427.98 524.73 427.87 524.72 427.73 524.71L427.73 524.4C427.97 524.41 428.22 524.41 428.48 524.41L429.21 524.41L429.81 524.41L430.45 524.41C430.67 524.41 430.88 524.41 431.1 524.4C431.3 524.4 431.5 524.4 431.69 524.4L431.69 525.61L431.43 525.64C431.38 525.37 431.28 525.17 431.15 525.05C430.99 524.93 430.75 524.87 430.41 524.87L429.43 524.87Z"/>
<path d="M433.17 525.3C433.17 525.16 433.16 525.06 433.12 524.98C433.08 524.91 433.03 524.85 432.97 524.81C432.9 524.77 432.82 524.75 432.75 524.73C432.66 524.72 432.58 524.71 432.49 524.71L432.49 524.4C432.64 524.4 432.84 524.4 433.07 524.4C433.29 524.41 433.48 524.41 433.64 524.41L433.92 524.41C434.03 524.41 434.13 524.41 434.24 524.4C434.34 524.4 434.45 524.4 434.55 524.4L434.84 524.4L434.84 524.71C434.74 524.71 434.66 524.72 434.57 524.73C434.49 524.75 434.41 524.77 434.35 524.81C434.28 524.85 434.24 524.91 434.2 524.98C434.16 525.06 434.15 525.16 434.15 525.3L434.15 529.75C434.15 529.89 434.16 530 434.2 530.07C434.24 530.15 434.28 530.2 434.35 530.24C434.41 530.28 434.49 530.31 434.57 530.32C434.66 530.33 434.74 530.33 434.84 530.33L434.84 530.65L434.56 530.65C434.46 530.64 434.36 530.64 434.26 530.64L433.96 530.64C433.86 530.63 433.76 530.63 433.69 530.63L433.41 530.63C433.3 530.63 433.19 530.63 433.09 530.64C432.98 530.64 432.87 530.64 432.77 530.65L432.49 530.65L432.49 530.33C432.58 530.33 432.66 530.33 432.75 530.32C432.82 530.31 432.9 530.28 432.97 530.24C433.03 530.2 433.08 530.15 433.12 530.07C433.16 530 433.17 529.89 433.17 529.75Z"/>
<path d="M440.65 525.86L440.38 525.86C440.29 525.5 440.11 525.21 439.82 525.02C439.53 524.83 439.18 524.74 438.75 524.74C438.41 524.74 438.11 524.81 437.85 524.97C437.6 525.13 437.38 525.33 437.21 525.58C437.04 525.84 436.91 526.13 436.82 526.44C436.74 526.77 436.69 527.09 436.69 527.42C436.69 527.76 436.74 528.1 436.82 528.44C436.91 528.79 437.04 529.09 437.21 529.37C437.38 529.65 437.61 529.87 437.87 530.04C438.13 530.22 438.43 530.31 438.78 530.31C438.98 530.31 439.15 530.29 439.3 530.24C439.43 530.2 439.53 530.16 439.59 530.12L439.59 528.51C439.59 528.38 439.57 528.27 439.53 528.18C439.49 528.11 439.44 528.05 439.38 528.01C439.31 527.98 439.24 527.95 439.16 527.93C439.07 527.93 438.98 527.93 438.89 527.93L438.89 527.61L439.19 527.61C439.3 527.62 439.42 527.62 439.55 527.62C439.67 527.63 439.79 527.63 439.91 527.63L440.2 527.63C440.36 527.63 440.53 527.63 440.71 527.62C440.88 527.62 441.02 527.62 441.12 527.61L441.12 527.93C441.06 527.93 441 527.93 440.94 527.93C440.87 527.95 440.81 527.98 440.76 528.01C440.7 528.05 440.66 528.11 440.63 528.18C440.58 528.27 440.57 528.38 440.57 528.51L440.57 529.64C440.57 529.79 440.58 529.91 440.6 530.01C440.62 530.12 440.63 530.21 440.67 530.28L440.67 530.36C440.52 530.39 440.38 530.44 440.23 530.49C440.07 530.55 439.91 530.59 439.76 530.64C439.59 530.67 439.42 530.71 439.24 530.74C439.07 530.77 438.89 530.78 438.71 530.78C438.14 530.78 437.66 530.67 437.27 530.47C436.88 530.26 436.57 529.99 436.33 529.67C436.08 529.35 435.91 529 435.81 528.62C435.7 528.24 435.64 527.88 435.64 527.53C435.64 527.07 435.71 526.63 435.87 526.22C436 525.83 436.21 525.48 436.47 525.19C436.73 524.9 437.04 524.68 437.42 524.51C437.78 524.34 438.19 524.26 438.63 524.26C438.99 524.26 439.32 524.3 439.64 524.39C439.94 524.48 440.25 524.57 440.56 524.66Z"/>
<path d="M447.57 530.72L447.07 530.72L442.94 525.65L442.94 529.04C442.94 529.31 442.95 529.52 442.98 529.68C442.99 529.85 443.04 529.99 443.1 530.08C443.16 530.18 443.26 530.24 443.38 530.27C443.5 530.32 443.65 530.33 443.84 530.33L443.84 530.65C443.68 530.65 443.5 530.64 443.29 530.64C443.07 530.63 442.89 530.63 442.74 530.63L442.47 530.63C442.37 530.63 442.28 530.63 442.18 530.64C442.07 530.64 441.97 530.64 441.88 530.65L441.61 530.65L441.61 530.33C441.71 530.33 441.82 530.33 441.92 530.32C442.01 530.31 442.1 530.26 442.18 530.2C442.24 530.14 442.3 530.03 442.35 529.9C442.4 529.77 442.42 529.58 442.42 529.33L442.42 525.64C442.42 525.32 442.35 525.08 442.19 524.92C442.03 524.79 441.8 524.71 441.5 524.71L441.5 524.4C441.6 524.4 441.73 524.4 441.9 524.4C442.05 524.41 442.19 524.41 442.31 524.41C442.35 524.41 442.41 524.41 442.5 524.4C442.58 524.4 442.66 524.4 442.75 524.4C442.82 524.4 442.9 524.4 442.98 524.39C443.06 524.39 443.12 524.38 443.17 524.36L447.05 529.13L447.05 525.67C447.05 525.33 446.99 525.08 446.86 524.93C446.72 524.8 446.48 524.72 446.14 524.71L446.14 524.4C446.3 524.4 446.49 524.4 446.71 524.4C446.93 524.41 447.11 524.41 447.28 524.41C447.42 524.41 447.58 524.41 447.79 524.4C447.98 524.4 448.15 524.4 448.29 524.4L448.29 524.71C448.18 524.71 448.09 524.72 448 524.73C447.91 524.75 447.83 524.79 447.77 524.84C447.7 524.9 447.66 524.98 447.63 525.09C447.59 525.2 447.57 525.34 447.57 525.53Z"/>
<path d="M451.67 528.65L452.06 528.61C452.15 529.1 452.38 529.5 452.77 529.8C453.12 530.11 453.58 530.26 454.15 530.26C454.38 530.26 454.61 530.24 454.86 530.17C455.09 530.12 455.31 530.03 455.51 529.91C455.71 529.79 455.87 529.64 456 529.43C456.11 529.25 456.18 529.01 456.18 528.73C456.18 528.36 456.08 528.05 455.87 527.82C455.67 527.59 455.41 527.39 455.12 527.21C454.81 527.03 454.48 526.86 454.13 526.7C453.77 526.54 453.44 526.34 453.15 526.09C452.84 525.87 452.59 525.56 452.38 525.2C452.18 524.85 452.07 524.41 452.07 523.84C452.07 523.35 452.15 522.92 452.3 522.58C452.46 522.25 452.66 521.98 452.94 521.77C453.2 521.57 453.52 521.43 453.89 521.33C454.25 521.25 454.63 521.2 455.05 521.2C455.41 521.2 455.78 521.22 456.15 521.27C456.51 521.33 456.86 521.36 457.18 521.36L457.29 523.12L456.88 523.13C456.75 522.71 456.55 522.4 456.28 522.2C456 522.02 455.63 521.91 455.17 521.91C454.91 521.91 454.67 521.95 454.45 522C454.22 522.08 454.03 522.17 453.88 522.3C453.7 522.43 453.57 522.59 453.48 522.77C453.38 522.96 453.34 523.18 453.34 523.42C453.34 523.83 453.44 524.15 453.66 524.39C453.86 524.65 454.12 524.85 454.44 525.03C454.75 525.23 455.08 525.4 455.45 525.56C455.81 525.74 456.15 525.93 456.47 526.16C456.78 526.39 457.04 526.67 457.25 527C457.46 527.34 457.56 527.77 457.56 528.3C457.56 528.81 457.46 529.23 457.28 529.56C457.09 529.91 456.84 530.19 456.54 530.39C456.23 530.6 455.87 530.75 455.49 530.85C455.09 530.93 454.7 530.98 454.29 530.98C454.06 530.98 453.84 530.95 453.61 530.93C453.37 530.89 453.14 530.85 452.92 530.81C452.69 530.76 452.48 530.71 452.3 530.66C452.1 530.61 451.93 530.56 451.81 530.53Z"/>
<path d="M463.08 525.69L462.77 525.69C462.77 525.59 462.77 525.5 462.76 525.4C462.74 525.32 462.71 525.23 462.67 525.16C462.63 525.09 462.57 525.04 462.49 525C462.41 524.97 462.3 524.94 462.16 524.94L461.2 524.94L461.2 529.75C461.2 529.89 461.21 530 461.26 530.07C461.29 530.15 461.34 530.2 461.41 530.24C461.47 530.28 461.55 530.31 461.63 530.31C461.72 530.33 461.8 530.33 461.9 530.33L461.9 530.65L461.62 530.65C461.52 530.64 461.42 530.64 461.32 530.64L461.01 530.64C460.91 530.63 460.81 530.63 460.74 530.63L460.46 530.63C460.35 530.63 460.24 530.63 460.14 530.64C460.02 530.64 459.92 530.64 459.82 530.65L459.52 530.65L459.52 530.33C459.61 530.33 459.7 530.33 459.79 530.31C459.88 530.31 459.95 530.28 460.02 530.24C460.08 530.2 460.13 530.15 460.17 530.07C460.21 530 460.23 529.89 460.23 529.75L460.23 524.94L459.42 524.94C459.26 524.94 459.14 524.96 459.06 524.98C458.97 525.02 458.9 525.07 458.86 525.13C458.81 525.2 458.77 525.27 458.76 525.36C458.73 525.46 458.71 525.57 458.69 525.69L458.39 525.69L458.41 524.28L458.73 524.28C458.76 524.34 458.79 524.38 458.84 524.38C458.89 524.4 458.97 524.4 459.11 524.4L462.38 524.4C462.61 524.4 462.74 524.36 462.77 524.28L463.11 524.28Z"/>
<path d="M469.02 524.71C468.88 524.71 468.77 524.74 468.69 524.78C468.61 524.83 468.54 524.9 468.5 524.99C468.45 525.1 468.43 525.23 468.42 525.39C468.4 525.55 468.4 525.74 468.4 525.97L468.4 528.4C468.4 528.75 468.35 529.09 468.26 529.38C468.17 529.68 468.03 529.92 467.86 530.13C467.68 530.34 467.46 530.49 467.21 530.61C466.93 530.73 466.63 530.78 466.29 530.78C465.96 530.78 465.66 530.73 465.4 530.64C465.13 530.54 464.9 530.38 464.72 530.18C464.52 529.98 464.37 529.73 464.27 529.41C464.17 529.1 464.12 528.73 464.12 528.3L464.12 525.3C464.12 525.16 464.1 525.06 464.07 524.98C464.03 524.91 463.97 524.85 463.91 524.81C463.85 524.77 463.77 524.75 463.69 524.73C463.61 524.72 463.51 524.71 463.43 524.71L463.43 524.4C463.59 524.4 463.79 524.4 464.02 524.4C464.24 524.41 464.43 524.41 464.59 524.41L464.87 524.41C464.97 524.41 465.07 524.41 465.19 524.4C465.3 524.4 465.41 524.4 465.51 524.4L465.79 524.4L465.79 524.71C465.7 524.71 465.61 524.72 465.53 524.73C465.44 524.75 465.36 524.77 465.3 524.81C465.24 524.85 465.19 524.91 465.15 524.98C465.11 525.06 465.09 525.16 465.09 525.3L465.09 528.11C465.09 528.77 465.2 529.29 465.44 529.67C465.67 530.05 466.01 530.24 466.46 530.24C466.7 530.24 466.92 530.19 467.1 530.08C467.27 529.97 467.4 529.84 467.51 529.67C467.62 529.5 467.69 529.3 467.74 529.08C467.79 528.86 467.81 528.64 467.81 528.4L467.81 526C467.81 525.69 467.8 525.44 467.79 525.27C467.77 525.1 467.74 524.98 467.68 524.89C467.63 524.81 467.56 524.76 467.46 524.75C467.36 524.73 467.23 524.72 467.08 524.71L467.08 524.4C467.22 524.4 467.4 524.4 467.62 524.4C467.82 524.41 467.99 524.41 468.15 524.41C468.26 524.41 468.41 524.41 468.58 524.4C468.75 524.4 468.9 524.4 469.02 524.4Z"/>
<path d="M471.12 529.57C471.12 529.71 471.13 529.81 471.16 529.89C471.19 529.97 471.23 530.03 471.28 530.07C471.32 530.12 471.38 530.14 471.44 530.15C471.5 530.17 471.57 530.17 471.64 530.17C472.02 530.17 472.36 530.1 472.63 529.96C472.89 529.82 473.12 529.63 473.29 529.39C473.46 529.16 473.58 528.88 473.66 528.56C473.73 528.25 473.77 527.92 473.77 527.56C473.77 527.15 473.72 526.78 473.62 526.45C473.51 526.13 473.35 525.85 473.16 525.61C472.95 525.38 472.71 525.2 472.44 525.06C472.15 524.94 471.84 524.87 471.49 524.87C471.38 524.87 471.3 524.88 471.26 524.88C471.2 524.89 471.16 524.9 471.12 524.9ZM470.15 525.39C470.15 525.23 470.12 525.1 470.08 525.01C470.03 524.92 469.98 524.86 469.91 524.8C469.84 524.77 469.76 524.75 469.69 524.73C469.6 524.72 469.52 524.71 469.45 524.71L469.45 524.4C469.58 524.41 469.73 524.41 469.89 524.41L470.33 524.41C470.48 524.41 470.64 524.41 470.82 524.4C470.99 524.4 471.21 524.4 471.48 524.4C472.02 524.4 472.49 524.48 472.92 524.64C473.33 524.81 473.68 525.04 473.97 525.33C474.24 525.62 474.45 525.95 474.61 526.32C474.74 526.71 474.82 527.11 474.82 527.53C474.82 527.73 474.8 527.94 474.77 528.17C474.73 528.4 474.66 528.63 474.57 528.85C474.46 529.09 474.34 529.31 474.18 529.52C474.01 529.74 473.81 529.93 473.55 530.09C473.29 530.26 472.99 530.4 472.64 530.5C472.28 530.6 471.87 530.65 471.39 530.65C471.2 530.65 471.04 530.64 470.91 530.64C470.76 530.63 470.61 530.63 470.45 530.63C470.29 530.63 470.12 530.63 469.95 530.64C469.77 530.64 469.6 530.64 469.45 530.65L469.45 530.33C469.54 530.32 469.64 530.31 469.72 530.29C469.81 530.28 469.87 530.26 469.94 530.2C470 530.17 470.05 530.11 470.09 530.02C470.12 529.96 470.14 529.85 470.15 529.72Z"/>
<path d="M476.3 525.3C476.3 525.16 476.28 525.06 476.25 524.98C476.21 524.91 476.15 524.85 476.1 524.81C476.03 524.77 475.95 524.75 475.87 524.73C475.79 524.72 475.7 524.71 475.62 524.71L475.62 524.4C475.77 524.4 475.97 524.4 476.2 524.4C476.42 524.41 476.61 524.41 476.77 524.41L477.05 524.41C477.15 524.41 477.26 524.41 477.37 524.4C477.47 524.4 477.58 524.4 477.68 524.4L477.96 524.4L477.96 524.71C477.87 524.71 477.78 524.72 477.7 524.73C477.61 524.75 477.54 524.77 477.48 524.81C477.41 524.85 477.37 524.91 477.33 524.98C477.29 525.06 477.27 525.16 477.27 525.3L477.27 529.75C477.27 529.89 477.29 530 477.33 530.07C477.37 530.15 477.41 530.2 477.48 530.24C477.54 530.28 477.61 530.31 477.7 530.32C477.78 530.33 477.87 530.33 477.96 530.33L477.96 530.65L477.69 530.65C477.59 530.64 477.49 530.64 477.38 530.64L477.08 530.64C476.98 530.63 476.89 530.63 476.82 530.63L476.54 530.63C476.43 530.63 476.32 530.63 476.21 530.64C476.1 530.64 476 530.64 475.9 530.65L475.62 530.65L475.62 530.33C475.7 530.33 475.79 530.33 475.87 530.32C475.95 530.31 476.03 530.28 476.1 530.24C476.15 530.2 476.21 530.15 476.25 530.07C476.28 530 476.3 529.89 476.3 529.75Z"/>
<path d="M480.25 527.09L481.06 527.09C481.19 527.09 481.3 527.07 481.38 527.02C481.46 526.99 481.52 526.93 481.57 526.86C481.6 526.8 481.64 526.73 481.65 526.66C481.66 526.59 481.67 526.53 481.67 526.48L481.94 526.48C481.93 526.53 481.93 526.59 481.93 526.66C481.92 526.73 481.92 526.81 481.92 526.9C481.91 526.99 481.91 527.08 481.91 527.17L481.91 527.41C481.91 527.53 481.91 527.69 481.93 527.86C481.93 528.05 481.94 528.2 481.94 528.32L481.67 528.32C481.67 528.16 481.65 528.03 481.63 527.93C481.6 527.84 481.54 527.77 481.48 527.72C481.42 527.68 481.33 527.65 481.24 527.64C481.14 527.64 481.02 527.63 480.88 527.63L480.25 527.63L480.25 529.33C480.25 529.47 480.25 529.59 480.27 529.69C480.27 529.8 480.29 529.89 480.32 529.96C480.35 530.03 480.39 530.08 480.46 530.11C480.51 530.15 480.59 530.17 480.69 530.17L481.46 530.17C481.62 530.17 481.76 530.16 481.88 530.14C481.99 530.12 482.09 530.08 482.18 530.01C482.26 529.96 482.33 529.87 482.4 529.77C482.46 529.67 482.52 529.54 482.59 529.39L482.88 529.41C482.84 529.61 482.81 529.81 482.77 530.03C482.74 530.25 482.7 530.44 482.69 530.65L482.08 530.65C481.86 530.64 481.65 530.64 481.43 530.64L480.79 530.64C480.56 530.63 480.36 530.63 480.17 530.63L479.36 530.63C479.08 530.63 478.81 530.63 478.55 530.65L478.55 530.33C478.7 530.33 478.82 530.32 478.93 530.3C479.01 530.28 479.09 530.23 479.14 530.16C479.19 530.1 479.22 530.01 479.25 529.89C479.27 529.78 479.28 529.62 479.28 529.44L479.28 525.43C479.28 525.27 479.26 525.15 479.24 525.05C479.22 524.97 479.17 524.89 479.12 524.84C479.06 524.8 478.99 524.76 478.9 524.75C478.8 524.73 478.69 524.72 478.55 524.71L478.55 524.4C478.79 524.41 479.04 524.41 479.29 524.41L480.03 524.41L480.62 524.41L481.27 524.41C481.48 524.41 481.7 524.41 481.91 524.4C482.12 524.4 482.32 524.4 482.51 524.4L482.51 525.61L482.24 525.64C482.19 525.37 482.1 525.17 481.96 525.05C481.81 524.93 481.57 524.87 481.23 524.87L480.25 524.87Z"/>
<path d="M483.48 529.23L483.74 529.21C483.8 529.53 483.96 529.8 484.21 530C484.45 530.2 484.76 530.31 485.13 530.31C485.29 530.31 485.44 530.29 485.61 530.25C485.76 530.21 485.91 530.15 486.04 530.07C486.17 529.99 486.28 529.89 486.37 529.75C486.45 529.63 486.49 529.47 486.49 529.28C486.49 529.04 486.42 528.83 486.28 528.68C486.15 528.52 485.98 528.39 485.78 528.27C485.58 528.15 485.35 528.04 485.12 527.93C484.89 527.82 484.66 527.69 484.47 527.53C484.26 527.37 484.09 527.17 483.96 526.93C483.82 526.7 483.75 526.4 483.75 526.02C483.75 525.69 483.8 525.41 483.9 525.18C484.01 524.96 484.14 524.78 484.33 524.64C484.5 524.51 484.71 524.41 484.96 524.34C485.2 524.29 485.46 524.26 485.74 524.26C485.98 524.26 486.22 524.28 486.47 524.31C486.71 524.34 486.94 524.37 487.15 524.37L487.23 525.54L486.96 525.55C486.87 525.27 486.74 525.06 486.56 524.92C486.37 524.8 486.12 524.74 485.82 524.74C485.64 524.74 485.48 524.76 485.34 524.8C485.18 524.85 485.06 524.91 484.95 524.99C484.83 525.08 484.75 525.19 484.69 525.31C484.62 525.44 484.6 525.58 484.6 525.74C484.6 526.02 484.66 526.23 484.81 526.39C484.95 526.56 485.12 526.7 485.33 526.82C485.53 526.95 485.76 527.07 486 527.17C486.24 527.29 486.47 527.42 486.69 527.57C486.89 527.72 487.06 527.91 487.21 528.13C487.34 528.35 487.41 528.64 487.41 528.99C487.41 529.33 487.34 529.62 487.22 529.84C487.09 530.07 486.93 530.25 486.73 530.39C486.52 530.53 486.28 530.63 486.03 530.7C485.76 530.75 485.5 530.78 485.23 530.78C485.07 530.78 484.93 530.77 484.77 530.75C484.61 530.72 484.46 530.7 484.31 530.67C484.16 530.64 484.02 530.6 483.9 530.57C483.77 530.54 483.66 530.5 483.57 530.49Z"/>
<path d="M312.99 500.8L312.99 509.24L309.03 509.24L309.03 493.82C309.03 492.71 308.51 491.74 307.45 490.96L312.99 490.96L312.99 497.61L316.43 497.61L316.43 500.8ZM297.73 499.83C297.73 500.55 297.9 501.21 298.29 501.77C298.62 502.35 299.06 502.62 299.56 502.62C300.06 502.62 300.47 502.35 300.86 501.77C301.19 501.21 301.39 500.6 301.39 499.88C301.39 499.16 301.19 498.52 300.86 497.94C300.5 497.39 300.09 497.08 299.59 497.08C299.09 497.08 298.65 497.36 298.29 497.92C297.9 498.5 297.73 499.13 297.73 499.83M301.5 507.5L301.5 512.7C301.5 512.82 301.53 512.93 301.61 513.01C301.67 513.07 301.78 513.12 301.89 513.12L313.24 513.12L313.24 516.17L299.62 516.17C298.9 516.17 298.34 515.97 298.01 515.64C297.65 515.25 297.48 514.7 297.48 513.92L297.48 510.02C297.48 509.02 296.96 508.19 295.9 507.5ZM291.78 496.89L291.78 493.84L297.46 493.84L297.46 492.85C297.46 492.07 297.1 491.38 296.38 490.83L301.61 490.83L301.61 493.84L307.31 493.84L307.31 496.89L304.52 496.89C304.79 497.33 304.99 497.78 305.15 498.28C305.27 498.77 305.35 499.3 305.35 499.83C305.35 501.4 304.77 502.76 303.66 503.87C302.5 505.03 301.14 505.59 299.53 505.59C297.93 505.59 296.54 505.03 295.43 503.87C294.27 502.76 293.72 501.4 293.72 499.83C293.72 499.3 293.77 498.77 293.94 498.28C294.05 497.78 294.24 497.33 294.52 496.89Z"/>
<path d="M336.76 500.3L339.89 500.3L339.89 503.34L330.47 503.34L330.47 506.94L336.87 506.94C336.92 506.94 337.01 506.97 337.06 507C337.09 507.06 337.12 507.14 337.12 507.22L337.12 516.44L333.05 516.44L333.05 510.21C333.05 510.13 333.02 510.05 332.99 509.99C332.93 509.96 332.85 509.94 332.77 509.94L319.5 509.94L319.5 506.94L326.15 506.94L326.15 503.34L316.71 503.34L316.71 500.3L332.8 500.3C333.07 499.8 333.24 499.24 333.32 498.61C333.38 498 333.43 497.17 333.43 496.17L333.43 495.37C333.43 495.17 333.4 495.04 333.35 494.95C333.27 494.9 333.13 494.84 332.91 494.84L319.17 494.84L319.17 491.8L337.2 491.8C337.28 491.8 337.37 491.82 337.42 491.85C337.45 491.91 337.48 491.99 337.48 492.1L337.48 496.48C337.48 497.56 337.42 498.36 337.31 498.89C337.17 499.44 336.98 499.91 336.76 500.3"/>
<path d="M352.43 497C352.43 496.23 352.21 495.59 351.83 495.04C351.41 494.51 350.91 494.23 350.36 494.23C349.78 494.23 349.31 494.51 348.92 495.04C348.53 495.59 348.34 496.23 348.34 497C348.34 497.78 348.53 498.44 348.92 498.97C349.31 499.52 349.78 499.77 350.36 499.77C350.91 499.77 351.41 499.52 351.83 498.97C352.21 498.44 352.43 497.78 352.43 497M356.37 497.14C356.37 498.77 355.79 500.16 354.62 501.27C353.43 502.4 352.02 502.96 350.36 502.96C348.7 502.96 347.31 502.4 346.15 501.27C344.96 500.16 344.38 498.77 344.38 497.14C344.38 495.53 344.96 494.15 346.15 493.01C347.31 491.91 348.7 491.32 350.36 491.32C352.02 491.32 353.43 491.91 354.62 493.01C355.79 494.15 356.37 495.53 356.37 497.14M362.99 516.44L359.08 516.44L359.08 510.18C358.61 510.38 358.06 510.49 357.39 510.54C356.73 510.6 355.87 510.63 354.87 510.63L341.94 510.63L341.94 507.66L348.72 507.66L348.72 506.53C348.72 505.59 348.28 504.78 347.39 504.12L352.52 504.12L352.52 507.66L355.92 507.66C356.64 507.66 357.28 507.64 357.81 507.53C358.31 507.44 358.72 507.33 359.08 507.17L359.08 493.82C359.08 492.71 358.56 491.74 357.5 490.96L362.99 490.96Z"/>
<path d="M386.11 500.3L389.24 500.3L389.24 503.34L379.83 503.34L379.83 506.94L386.22 506.94C386.28 506.94 386.36 506.97 386.42 507C386.45 507.06 386.47 507.14 386.47 507.22L386.47 516.44L382.4 516.44L382.4 510.21C382.4 510.13 382.38 510.05 382.35 509.99C382.29 509.96 382.21 509.94 382.13 509.94L368.86 509.94L368.86 506.94L375.51 506.94L375.51 503.34L366.06 503.34L366.06 500.3L382.15 500.3C382.43 499.8 382.6 499.24 382.68 498.61C382.74 498 382.79 497.17 382.79 496.17L382.79 495.37C382.79 495.17 382.76 495.04 382.71 494.95C382.63 494.9 382.49 494.84 382.26 494.84L368.53 494.84L368.53 491.8L386.56 491.8C386.64 491.8 386.72 491.82 386.78 491.85C386.81 491.91 386.83 491.99 386.83 492.1L386.83 496.48C386.83 497.56 386.78 498.36 386.67 498.89C386.53 499.44 386.34 499.91 386.11 500.3"/>
<path d="M395.64 500.08C395.64 501.18 395.92 502.21 396.5 503.09C397.06 504.01 397.8 504.45 398.75 504.45C399.66 504.45 400.41 504.01 401.02 503.12C401.57 502.24 401.88 501.24 401.88 500.13C401.88 499.02 401.57 498.03 401.02 497.11C400.44 496.23 399.69 495.76 398.77 495.76C397.89 495.76 397.17 496.2 396.56 497.08C395.95 497.97 395.64 498.97 395.64 500.08M408.36 498.41L408.36 493.82C408.36 492.71 407.83 491.74 406.78 490.96L412.32 490.96L412.32 516.44L408.36 516.44L408.36 501.76L405.67 501.76C405.28 503.37 404.45 504.73 403.15 505.78C401.82 506.86 400.35 507.39 398.69 507.39C396.7 507.39 395.04 506.67 393.65 505.23C392.24 503.81 391.55 502.1 391.55 500.08C391.55 498.08 392.24 496.34 393.65 494.9C395.04 493.48 396.7 492.76 398.66 492.76C400.33 492.76 401.82 493.32 403.15 494.37C404.45 495.48 405.31 496.81 405.7 498.41Z"/>
<path d="M437.27 516.44L433.76 516.44L433.76 501.76L432.29 501.76L432.29 516.44L428.77 516.44L428.77 508.49C428.33 508.63 427.8 508.72 427.22 508.74C426.61 508.8 425.86 508.83 425.03 508.83L420.41 508.83C419.35 508.83 418.55 508.55 418.05 508C417.5 507.44 417.25 506.58 417.25 505.39L417.25 495.45C417.25 494.45 416.72 493.62 415.67 492.93L426.75 492.93L426.75 495.98L421.15 495.98L421.15 505.23C421.15 505.42 421.21 505.56 421.32 505.64C421.4 505.75 421.51 505.78 421.65 505.78L426.08 505.78C426.64 505.78 427.16 505.75 427.61 505.7C428.05 505.64 428.44 505.56 428.77 505.45L428.77 493.48C428.77 492.49 428.3 491.66 427.41 490.96L432.29 490.96L432.29 498.58L433.76 498.58L433.76 493.48C433.76 492.49 433.31 491.66 432.43 490.96L437.27 490.96Z"/>
<path d="M461.07 495.95L464.5 495.95L464.5 499.13L461.07 499.13L461.07 505.67L457.1 505.67L457.1 493.82C457.1 492.71 456.58 491.74 455.53 490.96L461.07 490.96ZM445.92 499.13C445.92 499.83 446.08 500.44 446.42 500.93C446.72 501.49 447.13 501.74 447.63 501.74C448.1 501.74 448.52 501.49 448.85 500.96C449.18 500.46 449.35 499.88 449.35 499.19C449.35 498.5 449.18 497.89 448.88 497.36C448.55 496.86 448.13 496.59 447.66 496.59C447.19 496.59 446.77 496.84 446.44 497.33C446.08 497.86 445.92 498.47 445.92 499.13M460.79 506.78C460.84 506.78 460.93 506.8 460.98 506.83C461.04 506.89 461.07 506.97 461.07 507.05L461.07 516.44L456.97 516.44L456.97 510.05C456.97 509.96 456.94 509.88 456.91 509.82C456.86 509.8 456.77 509.77 456.69 509.77L443.81 509.77L443.81 506.78ZM439.85 496.47L439.85 493.43L445.53 493.43L445.53 492.57C445.53 491.8 445.17 491.1 444.45 490.55L449.68 490.55L449.68 493.43L455.39 493.43L455.39 496.47L452.62 496.47C452.84 496.89 453.03 497.31 453.14 497.75C453.25 498.19 453.31 498.66 453.31 499.13C453.31 500.68 452.73 502.01 451.62 503.12C450.49 504.23 449.16 504.78 447.61 504.78C446.03 504.78 444.7 504.23 443.59 503.12C442.45 502.01 441.9 500.68 441.9 499.13C441.9 498.66 441.96 498.19 442.09 497.75C442.21 497.31 442.34 496.89 442.57 496.47Z"/>
<path d="M481.4 495.92C481.4 495.73 481.37 495.59 481.31 495.51C481.23 495.45 481.09 495.4 480.87 495.4L467.38 495.4L467.38 492.35L485.05 492.35C485.11 492.35 485.19 492.38 485.27 492.43C485.33 492.49 485.36 492.57 485.36 492.65L485.36 500.96C485.36 502.82 485.25 504.31 485.02 505.45C484.8 506.61 484.42 507.61 483.89 508.41L480.15 508.41C480.65 507.53 480.98 506.47 481.17 505.28C481.34 504.12 481.4 502.57 481.4 500.66ZM479.51 510.63L487.96 510.63L487.96 513.67L464.78 513.67L464.78 510.63L470.21 510.63L470.21 503.37C470.21 502.43 469.74 501.63 468.85 500.96L473.95 500.96L473.95 510.63L475.77 510.63L475.77 503.37C475.77 502.43 475.33 501.63 474.44 500.96L479.51 500.96Z"/>
<path d="M245.48 501.42C245.56 501.36 245.63 501.3 245.7 501.24L245.7 498.56C245.08 498.95 244.48 499.39 243.93 499.87C244.31 500.53 244.85 501.03 245.48 501.42M245.7 506.99C245.55 507.31 245.41 507.64 245.27 507.97C245.41 508.03 245.56 508.09 245.7 508.13ZM245.7 508.65C245.5 508.59 245.29 508.51 245.1 508.43C244.56 509.85 244.2 511.34 244.02 512.86C244.55 513.14 245.12 513.38 245.7 513.59ZM245.08 501.73C244.46 501.34 243.94 500.83 243.55 500.21C242.61 501.08 241.78 502.09 241.09 503.19C241.35 504 241.67 504.69 242.05 505.29C242.88 503.93 243.9 502.72 245.08 501.73M245.7 518.73L245.7 514.13C245.1 513.93 244.51 513.69 243.95 513.41C243.81 514.94 243.84 516.5 244.04 518.05C244.57 518.3 245.13 518.52 245.7 518.73M239.02 509.16C238.95 509.71 238.92 510.26 238.92 510.83C238.92 512.19 239.11 513.51 239.46 514.76C239.48 514.78 239.5 514.8 239.52 514.82C239.5 513.32 239.67 511.82 240 510.39C239.66 510 239.32 509.59 239.02 509.16M245.3 522.84C245.43 522.93 245.57 523.01 245.7 523.1L245.7 519.3C245.16 519.11 244.63 518.9 244.13 518.67C244.37 520.09 244.76 521.49 245.3 522.84M255.51 498.07L260.95 498.07L260.95 493.64L247.01 493.64L247.01 527.86L260.95 527.86L260.95 523.6L255.51 523.6ZM241.76 505.77C241.37 505.19 241.03 504.53 240.76 503.76C239.96 505.18 239.4 506.74 239.12 508.4C239.44 508.89 239.78 509.35 240.15 509.78C240.53 508.36 241.07 507.01 241.76 505.77M244.7 531.16L244.51 531.1L244.14 531.97L244.28 532.03C244.6 532.16 244.83 532.1 244.97 531.77C245.09 531.49 244.98 531.28 244.7 531.16M265.46 518.88C267 516.58 267.9 513.81 267.9 510.83C267.9 510.57 267.9 510.31 267.88 510.06C267.51 511.12 266.99 512.18 266.32 513.19C266.32 515 266.03 516.9 265.46 518.88M240.08 516.11C240.08 516.16 240.08 516.22 240.09 516.27L239.98 516.28C240.95 518.66 242.54 520.73 244.54 522.28C244.09 521.02 243.77 519.73 243.58 518.42C242.23 517.75 241.05 516.97 240.08 516.11M244.63 508.23C243.67 507.77 242.81 507.12 242.1 506.22C241.42 507.46 240.91 508.82 240.56 510.24C241.43 511.18 242.43 511.96 243.54 512.6C243.74 511.09 244.1 509.62 244.63 508.23M266.29 512.3C266.98 511.12 267.48 509.9 267.75 508.71C267.49 506.92 266.9 505.24 266.04 503.73C265.97 504.96 265.66 506.18 265.13 507.35C265.8 508.9 266.19 510.55 266.29 512.3M257.11 499.65C258.8 500.37 260.34 501.43 261.64 502.62C262.16 501.52 262.38 500.4 262.29 499.37C262.28 499.37 262.27 499.36 262.26 499.35L262.26 499.38L257.34 499.38C257.27 499.47 257.19 499.56 257.11 499.65M264.83 506.71C264.84 506.72 264.84 506.72 264.84 506.72C265.34 505.49 265.58 504.19 265.54 502.9C264.78 501.74 263.86 500.7 262.82 499.8C262.82 500.83 262.56 501.92 262.03 502.99C263.26 504.19 264.23 505.49 264.83 506.71M242.37 505.75C243.04 506.66 243.87 507.31 244.81 507.77C245.07 507.12 245.37 506.5 245.7 505.89L245.7 502.08C245.65 502.05 245.6 502.03 245.55 502.01C244.29 503.02 243.22 504.3 242.37 505.75M240.41 510.84C240.1 512.3 239.97 513.82 240.03 515.36C240.96 516.24 242.13 517.07 243.5 517.77C243.32 516.23 243.3 514.67 243.47 513.14C242.34 512.52 241.32 511.75 240.41 510.84M263.58 508.99C263.96 508.47 264.29 507.92 264.57 507.35C264.51 507.21 264.45 507.07 264.38 506.94C263.82 505.8 262.92 504.58 261.79 503.46C261.2 504.5 260.42 505.43 259.49 506.22C259.88 506.95 260.22 507.7 260.47 508.44C260.81 509.4 261.06 510.38 261.24 511.39C262.14 510.69 262.92 509.89 263.58 508.99M256.81 522.29L259.83 522.29C260.26 521.03 260.57 519.74 260.77 518.45C259.55 519.17 258.22 519.72 256.81 520.05ZM260.86 512.29C259.66 513.1 258.3 513.75 256.81 514.2L256.81 519.53C258.26 519.18 259.62 518.58 260.87 517.82C261.1 515.95 261.1 514.09 260.86 512.29M265.81 513.06C265.78 511.25 265.45 509.55 264.82 507.95C264.58 508.41 264.31 508.86 263.99 509.29C263.25 510.31 262.35 511.2 261.32 511.96C261.59 513.75 261.62 515.6 261.42 517.46C263.19 516.27 264.69 514.73 265.81 513.06M264.53 520.12C265.29 517.95 265.71 515.89 265.79 513.95C264.61 515.54 263.09 516.99 261.34 518.11C261.14 519.51 260.82 520.91 260.37 522.29L262.26 522.29L262.26 522.3C263.09 521.66 263.85 520.93 264.53 520.12M261.41 503.1C260.11 501.87 258.53 500.79 256.81 500.07L256.81 502.45C257.73 503.45 258.56 504.58 259.24 505.77C260.12 505 260.86 504.1 261.41 503.1M256.81 507.37C257.54 507.02 258.22 506.59 258.84 506.1C258.26 505.09 257.57 504.11 256.81 503.23ZM256.81 513.67C258.27 513.21 259.61 512.56 260.78 511.73C260.6 510.66 260.34 509.62 260 508.61C259.76 507.92 259.45 507.23 259.09 506.55C258.39 507.09 257.63 507.56 256.81 507.93ZM241.65 490.46C241.77 490.51 241.89 490.5 242 490.44C242.11 490.39 242.18 490.29 242.21 490.16C242.24 490.04 242.22 489.91 242.15 489.79C242.08 489.66 241.99 489.58 241.87 489.53C241.74 489.49 241.63 489.49 241.52 489.55C241.41 489.61 241.34 489.7 241.31 489.83C241.28 489.96 241.3 490.08 241.37 490.21C241.44 490.33 241.53 490.42 241.65 490.46M256.78 488.34C256.96 488.37 257.11 488.33 257.25 488.2C257.38 488.08 257.47 487.92 257.5 487.74C257.53 487.55 257.51 487.38 257.42 487.21C257.34 487.04 257.21 486.94 257.04 486.91C256.88 486.89 256.73 486.93 256.59 487.05C256.45 487.18 256.36 487.33 256.32 487.52C256.29 487.71 256.32 487.88 256.4 488.05C256.49 488.22 256.61 488.31 256.78 488.34M231.52 502.54C231.64 502.59 231.76 502.6 231.89 502.57C232.02 502.53 232.11 502.46 232.15 502.36C232.2 502.25 232.19 502.14 232.13 502.03C232.07 501.91 231.98 501.83 231.86 501.78C231.73 501.72 231.61 501.72 231.48 501.75C231.36 501.78 231.27 501.85 231.22 501.96C231.18 502.06 231.19 502.17 231.25 502.29C231.31 502.41 231.4 502.49 231.52 502.54M277.84 511.88C277.83 512.14 277.82 512.41 277.81 512.67L277.69 512.66C277.7 512.47 277.68 512.36 277.49 512.35L275.82 512.28C275.64 512.27 275.61 512.38 275.6 512.57L275.48 512.56C275.49 512.38 275.5 512.2 275.51 512.01C275.53 511.68 275.54 511.34 275.55 511.01L276.05 511.01L276.05 511.1C275.72 511.13 275.69 511.2 275.67 511.62L275.66 511.92L276.56 511.96L276.58 511.62C276.59 511.42 276.59 511.33 276.26 511.31L276.26 511.21C276.39 511.22 276.51 511.23 276.64 511.23C276.77 511.24 276.9 511.24 277.04 511.24L277.03 511.35C276.77 511.34 276.74 511.39 276.73 511.63L276.71 511.97L277.41 512C277.61 512.01 277.7 511.91 277.71 511.58C277.73 511.16 277.67 511.13 277.36 510.96L277.37 510.86L277.89 511.01C277.87 511.3 277.85 511.59 277.84 511.88M277.69 513.63C277.67 513.78 277.66 513.94 277.65 514.09L277.52 514.08C277.55 513.89 277.53 513.77 277.35 513.75L275.69 513.55C275.51 513.53 275.47 513.64 275.45 513.83L275.32 513.81C275.35 513.66 275.37 513.5 275.39 513.35C275.41 513.19 275.42 513.02 275.44 512.87L275.56 512.88C275.54 513.07 275.55 513.18 275.73 513.21L277.39 513.41C277.57 513.43 277.61 513.32 277.64 513.13L277.76 513.15C277.74 513.29 277.71 513.46 277.69 513.63M277.33 515.85C277.29 516.02 277.24 516.22 277.21 516.37C277.17 516.55 277.14 516.73 277.11 516.91L276.99 516.88C277.03 516.7 277.02 516.58 276.84 516.55L275.21 516.2C275.03 516.16 274.98 516.26 274.94 516.45L274.82 516.43C274.85 516.28 274.89 516.12 274.93 515.95C274.97 515.75 275.01 515.54 275.05 515.34C275.22 514.54 275.87 514.32 276.41 514.44C277.29 514.62 277.46 515.26 277.33 515.85M276.67 518.48C276.5 518.98 276.18 519.2 275.66 519.02L274.41 518.6C274.25 518.55 274.2 518.71 274.16 518.82L274.04 518.78C274.1 518.64 274.15 518.48 274.2 518.34C274.25 518.2 274.29 518.06 274.33 517.93L274.45 517.97C274.41 518.08 274.36 518.22 274.52 518.27L275.75 518.68C276.16 518.82 276.4 518.66 276.5 518.36C276.69 517.82 276.19 517.66 275.74 517.5L275.21 517.32C274.75 517.17 274.7 517.2 274.62 517.46L274.5 517.42C274.55 517.29 274.6 517.16 274.64 517.03C274.67 516.93 274.71 516.82 274.74 516.71L274.85 516.75C274.81 516.88 274.8 516.99 275.09 517.09L276.01 517.4C276.53 517.57 276.86 517.92 276.67 518.48M275.7 520.76C275.64 520.91 275.58 521.05 275.51 521.22L275.4 521.17C275.49 520.97 275.5 520.86 275.34 520.78L273.65 520.02L273.52 520.3C273.42 520.53 273.44 520.59 273.7 520.78L273.66 520.88L273.11 520.57L273.14 520.49C273.23 520.53 273.29 520.46 273.32 520.38L273.86 519.19C273.89 519.11 273.92 519.06 273.84 518.95L273.87 518.88L274.43 519.17L274.39 519.27C274.1 519.17 274.03 519.17 273.96 519.33L273.8 519.7L275.48 520.46C275.65 520.54 275.72 520.45 275.81 520.25L275.92 520.3C275.85 520.46 275.77 520.62 275.7 520.76M274.76 522.79C274.66 522.98 274.5 523.14 274.32 523.25L273.67 522.98L273.72 522.9C274.06 523.02 274.48 522.99 274.64 522.69C274.8 522.42 274.69 522.08 274.36 521.9C273.59 521.46 273.23 522.64 272.25 522.09C271.71 521.79 271.61 521.3 271.86 520.87C271.94 520.72 272.06 520.6 272.16 520.47L272.73 520.71L272.68 520.79C272.37 520.67 272.1 520.74 271.96 520.99C271.81 521.26 271.95 521.55 272.26 521.72C273.03 522.15 273.43 520.94 274.39 521.48C274.93 521.78 275 522.37 274.76 522.79M273.26 525.12L270.93 525.05L271.94 525.83C272.21 526.04 272.3 526.06 272.48 525.82L272.58 525.89C272.5 526 272.4 526.12 272.31 526.23C272.23 526.34 272.15 526.45 272.07 526.56L271.97 526.48C272.17 526.22 272.02 526.1 271.75 525.89L270.7 525.07C270.53 524.94 270.37 525.13 270.32 525.19L270.22 525.12C270.29 525.04 270.35 524.97 270.41 524.9C270.46 524.83 270.52 524.75 270.57 524.67L272.68 524.75L271.69 523.98C271.43 523.77 271.36 523.86 271.23 524.03L271.13 523.95C271.21 523.85 271.3 523.74 271.38 523.64C271.46 523.55 271.53 523.44 271.6 523.34L271.7 523.42C271.58 523.57 271.53 523.65 271.72 523.79L273.32 525.04ZM271.12 527.66C270.66 528.13 269.95 528.08 269.47 527.61C268.93 527.08 268.93 526.38 269.38 525.92C269.45 525.85 269.52 525.8 269.67 525.68L269.99 525.47L270.42 525.84L270.36 525.9C270.1 525.79 269.83 525.67 269.54 525.98C269.23 526.3 269.19 526.78 269.74 527.32C270.06 527.63 270.66 527.91 271.11 527.45C271.18 527.37 271.22 527.29 271.25 527.19L270.99 526.92C270.8 526.74 270.73 526.71 270.53 526.91L270.44 526.83C270.56 526.72 270.68 526.6 270.79 526.49C270.88 526.4 270.97 526.29 271.05 526.2L271.14 526.28C271.01 526.42 271 526.47 271.12 526.59L271.33 526.8C271.4 526.86 271.45 526.91 271.52 526.88L271.58 526.94C271.49 527.14 271.35 527.42 271.12 527.66M269.49 529.11C269.38 529.21 269.26 529.32 269.15 529.43L269.06 529.33C269.21 529.21 269.27 529.11 269.15 528.98L268.06 527.72C267.94 527.58 267.84 527.63 267.69 527.75L267.61 527.66C267.73 527.56 267.85 527.46 267.97 527.36C268.09 527.25 268.22 527.14 268.33 527.03L268.41 527.13C268.26 527.25 268.2 527.35 268.32 527.49L269.42 528.75C269.54 528.88 269.64 528.83 269.78 528.71L269.86 528.8C269.75 528.9 269.62 529.01 269.49 529.11M268.03 530.3C267.82 530.45 267.61 530.61 267.4 530.77L267.33 530.68C267.48 530.56 267.55 530.47 267.44 530.33L266.44 528.99C266.33 528.84 266.23 528.88 266.08 529L266 528.9C266.15 528.79 266.3 528.69 266.45 528.58C266.71 528.38 266.98 528.17 267.24 527.97L267.56 528.36L267.5 528.41C267.26 528.18 267.19 528.2 266.85 528.45L266.61 528.63L267.16 529.35L267.43 529.15C267.59 529.03 267.66 528.97 267.46 528.71L267.54 528.64C267.62 528.75 267.69 528.85 267.77 528.96C267.84 529.06 267.93 529.16 268.01 529.27L267.93 529.33C267.77 529.12 267.71 529.13 267.52 529.27L267.25 529.48L267.67 530.04C267.79 530.2 267.91 530.2 268.18 530C268.51 529.75 268.5 529.69 268.43 529.34L268.52 529.28L268.73 529.78C268.5 529.95 268.26 530.12 268.03 530.3M266.89 531.11C266.81 531.16 266.74 531.21 266.67 531.26C266.42 531.16 265.95 530.87 265.56 530.64L265.45 530.71L265.33 530.78L265.73 531.44C265.83 531.61 265.95 531.55 266.1 531.46L266.16 531.57C266.03 531.64 265.88 531.73 265.75 531.81C265.61 531.89 265.48 531.98 265.35 532.07L265.29 531.96C265.45 531.86 265.53 531.78 265.43 531.62L264.56 530.19C264.47 530.04 264.36 530.07 264.2 530.17L264.13 530.07C264.27 529.99 264.4 529.91 264.53 529.83C264.7 529.73 264.93 529.58 265.05 529.5C265.33 529.33 265.67 529.35 265.87 529.68C266.01 529.91 265.98 530.15 265.79 530.39C266.63 530.92 266.78 530.96 267.04 530.89L267.1 530.99C267.03 531.03 266.96 531.07 266.89 531.11M263.85 532.88C263.25 533.17 262.63 532.9 262.32 532.23C262 531.55 262.29 530.9 262.83 530.64C263.43 530.36 264.04 530.65 264.34 531.28C264.59 531.81 264.48 532.58 263.85 532.88M261.68 532.45C261.52 532.16 261.49 532.06 261.15 532.18L260.68 532.34L261.06 533.44C261.17 533.76 261.32 533.71 261.52 533.64L261.56 533.76C261.37 533.82 261.19 533.88 261.01 533.94C260.84 534 260.67 534.07 260.47 534.14L260.43 534.02C260.76 533.91 260.77 533.82 260.62 533.38L259.93 531.38C259.8 531.01 259.73 531.01 259.42 531.1L259.38 530.98C259.65 530.89 259.94 530.8 260.22 530.7C260.57 530.58 260.92 530.46 261.26 530.33L261.5 530.96L261.42 531.01C261.25 530.64 261.05 530.57 260.63 530.71L260.17 530.87L260.62 532.16L261.07 532C261.38 531.89 261.39 531.83 261.33 531.49L261.42 531.46C261.44 531.55 261.52 531.79 261.58 531.95C261.62 532.1 261.71 532.31 261.76 532.43ZM257.62 533.48L258 533.41C258.2 533.37 258.29 533.35 258.23 533.07L258.34 533.05C258.36 533.17 258.38 533.3 258.4 533.42C258.42 533.55 258.45 533.68 258.48 533.81L258.38 533.83C258.32 533.54 258.26 533.52 258.03 533.56L257.65 533.63L257.79 534.33C257.83 534.57 257.93 534.61 258.12 534.57L258.2 534.56L258.22 534.68C258.07 534.71 257.9 534.73 257.68 534.77C257.53 534.8 257.38 534.84 257.23 534.87L257.2 534.75C257.39 534.71 257.49 534.66 257.46 534.49L257.15 532.84C257.11 532.66 257 532.65 256.81 532.69L256.79 532.57C257.05 532.52 257.31 532.48 257.57 532.43C257.94 532.36 258.18 532.31 258.41 532.26L258.52 532.77L258.44 532.79C258.33 532.47 258.24 532.45 257.88 532.51L257.46 532.6ZM255.5 535.12C254.83 535.18 254.35 534.71 254.29 533.98C254.22 533.23 254.73 532.72 255.33 532.67C255.98 532.61 256.45 533.1 256.51 533.79C256.56 534.38 256.2 535.06 255.5 535.12M253.41 529.17C253.35 529.17 253.29 529.17 253.23 529.17L245.7 529.17L245.7 527.47C239.42 524.56 235.06 518.2 235.06 510.83C235.06 503.45 239.42 497.09 245.7 494.18L245.7 492.34L262.26 492.34L262.26 494.75C267.92 497.88 271.76 503.9 271.76 510.83C271.76 517.75 267.92 523.77 262.26 526.9L262.26 529.17L253.59 529.17C253.53 529.17 253.47 529.17 253.41 529.17M252.84 532.95C252.71 532.94 252.63 532.94 252.44 533.19L251.86 533.96L251.8 534.81C251.79 534.97 251.94 534.98 252.12 535L252.11 535.12C251.95 535.1 251.78 535.09 251.61 535.07C251.45 535.06 251.28 535.05 251.11 535.05L251.12 534.92C251.33 534.94 251.44 534.95 251.45 534.76L251.51 534.04L250.94 532.96C250.87 532.84 250.81 532.8 250.7 532.79L250.71 532.67C250.84 532.68 250.99 532.7 251.14 532.71C251.29 532.72 251.45 532.73 251.6 532.73L251.59 532.86C251.51 532.85 251.36 532.84 251.36 532.9C251.36 532.94 251.37 532.97 251.41 533.03L251.8 533.83L252.24 533.21C252.29 533.15 252.34 533.08 252.34 533.02C252.35 532.95 252.33 532.91 252.11 532.9L252.12 532.77C252.24 532.78 252.39 532.8 252.51 532.81C252.61 532.82 252.73 532.82 252.85 532.82ZM250.52 533.16L250.41 533.14C250.44 532.83 250.41 532.77 250.25 532.74L249.85 532.67L249.54 534.5C249.51 534.68 249.61 534.73 249.83 534.77L249.81 534.89C249.63 534.85 249.47 534.82 249.31 534.79C249.15 534.77 249 534.75 248.82 534.72L248.84 534.6C249.05 534.64 249.17 534.62 249.2 534.45L249.5 532.62L249.2 532.56C248.95 532.52 248.9 532.55 248.78 532.86L248.67 532.84L248.83 532.23L248.91 532.24C248.9 532.33 248.99 532.37 249.07 532.39L250.35 532.6C250.44 532.62 250.49 532.63 250.58 532.53L250.66 532.54ZM248.53 532.4C248.34 532.35 248.23 532.35 248.19 532.53L247.79 534.15C247.74 534.33 247.84 534.39 248.03 534.43L248 534.55C247.85 534.51 247.69 534.47 247.53 534.43C247.38 534.39 247.23 534.36 247.08 534.32L247.11 534.2C247.29 534.25 247.41 534.25 247.45 534.07L247.85 532.44C247.89 532.27 247.79 532.21 247.61 532.17L247.64 532.05C247.78 532.09 247.94 532.13 248.09 532.17C248.24 532.21 248.41 532.24 248.56 532.27ZM246.9 532.32C246.92 532.12 246.9 531.9 246.64 531.82C246.44 531.75 246.25 531.87 246.19 532.08C246.12 532.29 246.15 532.4 246.45 532.73C246.78 533.1 246.8 533.32 246.71 533.6C246.59 533.97 246.22 534.14 245.82 534.01C245.65 533.95 245.5 533.86 245.38 533.73L245.48 533.23L245.57 533.26C245.54 533.6 245.61 533.81 245.89 533.9C246.19 534 246.34 533.78 246.38 533.64C246.44 533.45 246.39 533.31 246.18 533.06C245.84 532.67 245.78 532.46 245.9 532.1C246 531.79 246.31 531.58 246.65 531.69C246.8 531.74 246.97 531.84 247.09 531.88L246.99 532.34ZM245.3 531.9C245.19 532.15 244.98 532.26 244.68 532.25C244.74 533.24 244.79 533.39 245 533.56L244.95 533.67C244.88 533.64 244.8 533.6 244.73 533.57C244.65 533.53 244.57 533.5 244.48 533.47C244.42 533.22 244.38 532.67 244.34 532.21L244.21 532.17L244.09 532.11L243.79 532.82C243.71 533 243.82 533.06 243.98 533.13L243.94 533.25C243.8 533.18 243.64 533.11 243.49 533.05C243.35 532.99 243.2 532.93 243.06 532.88L243.11 532.76C243.28 532.84 243.4 532.85 243.47 532.69L244.11 531.14C244.18 530.97 244.09 530.9 243.91 530.83L243.96 530.72C244.1 530.78 244.25 530.85 244.39 530.91C244.57 530.98 244.82 531.08 244.95 531.13C245.26 531.26 245.44 531.55 245.3 531.9M242.57 532.64C242.32 532.5 242.07 532.35 241.81 532.22C241.58 532.09 241.34 531.97 241.11 531.85L241.17 531.74C241.34 531.83 241.45 531.86 241.53 531.7L242.32 530.22C242.41 530.06 242.32 529.99 242.16 529.9L242.21 529.79C242.37 529.88 242.53 529.97 242.69 530.05C242.99 530.21 243.29 530.37 243.58 530.52L243.36 530.98L243.29 530.94C243.4 530.63 243.35 530.57 242.98 530.37L242.72 530.23L242.29 531.03L242.59 531.19C242.77 531.28 242.85 531.32 243 531.03L243.1 531.08C243.04 531.19 242.97 531.3 242.91 531.41C242.85 531.53 242.79 531.65 242.73 531.77L242.64 531.72C242.76 531.48 242.73 531.43 242.52 531.32L242.22 531.16L241.89 531.78C241.79 531.96 241.84 532.07 242.14 532.23C242.5 532.43 242.56 532.38 242.85 532.18L242.94 532.23ZM239.8 531.09L240.33 528.97C240.38 528.79 240.38 528.74 240.22 528.63L240.29 528.53C240.4 528.61 240.52 528.69 240.64 528.77C240.77 528.86 240.89 528.94 241.02 529.02L240.95 529.12L240.87 529.06C240.8 529.01 240.73 529.01 240.69 529.08L240.64 529.2L240.24 530.76L241.43 529.83C241.49 529.79 241.55 529.74 241.58 529.68C241.65 529.58 241.54 529.51 241.42 529.43L241.49 529.33C241.6 529.4 241.71 529.49 241.82 529.56C241.9 529.61 242 529.67 242.08 529.72L242.01 529.82C241.9 529.75 241.87 529.72 241.61 529.91L239.92 531.17ZM238.77 530.14L238.7 530.24C238.58 530.14 238.45 530.03 238.32 529.93C238.2 529.83 238.07 529.74 237.95 529.65L238.02 529.55C238.17 529.67 238.28 529.71 238.39 529.57L239.42 528.25C239.53 528.11 239.47 528.02 239.31 527.9L239.39 527.8C239.51 527.9 239.63 528 239.75 528.1C239.88 528.2 240.02 528.3 240.14 528.39L240.06 528.49C239.91 528.37 239.81 528.32 239.7 528.47L238.67 529.79C238.55 529.93 238.62 530.02 238.77 530.14M237.27 529.15L237.54 526.84L236.67 527.77C236.44 528.02 236.41 528.11 236.64 528.32L236.55 528.41C236.46 528.32 236.35 528.21 236.24 528.11C236.14 528.02 236.04 527.93 235.93 527.84L236.02 527.75C236.26 527.97 236.4 527.83 236.63 527.58L237.53 526.6C237.68 526.45 237.51 526.27 237.45 526.22L237.53 526.13C237.6 526.19 237.67 526.26 237.74 526.33C237.8 526.38 237.88 526.45 237.94 526.5L237.69 528.61L238.54 527.69C238.76 527.44 238.68 527.37 238.53 527.22L238.61 527.13C238.7 527.22 238.8 527.32 238.9 527.41C238.99 527.49 239.08 527.58 239.17 527.65L239.09 527.74C238.95 527.61 238.88 527.56 238.72 527.73L237.34 529.22ZM234.71 526.56C234.27 526.05 234.31 525.49 234.92 524.96L236.25 523.83C236.5 523.61 236.4 523.49 236.27 523.32L236.36 523.24C236.48 523.39 236.6 523.54 236.72 523.68C236.84 523.82 236.96 523.96 237.1 524.11L237 524.19C236.86 524.03 236.76 523.92 236.5 524.13L235.27 525.18C234.83 525.55 234.52 526.03 234.93 526.51C235.36 527.03 235.87 526.68 236.12 526.47L237.16 525.59C237.76 525.08 237.73 525.07 237.51 524.79L237.6 524.71C237.71 524.84 237.82 524.97 237.93 525.1C238.02 525.21 238.11 525.31 238.2 525.41L238.1 525.49C237.89 525.24 237.76 525.37 237.31 525.74L236.26 526.64C235.77 527.06 235.17 527.11 234.71 526.56M233.11 523.7C233.05 523.84 233.01 523.99 233.08 524.1L232.97 524.17C232.94 524.1 232.89 524.01 232.85 523.95C232.8 523.87 232.75 523.79 232.7 523.71L233.29 522.38L234.36 522.53L234.48 522.52L234.5 522.41L234.46 522.33L234.56 522.27C234.62 522.37 234.69 522.49 234.75 522.59C234.81 522.7 234.88 522.8 234.94 522.9L234.83 522.96C234.71 522.76 234.6 522.72 233.58 522.56ZM232.53 523.18L232.42 523.25C232.35 523.12 232.27 522.97 232.18 522.83C232.1 522.7 232.02 522.56 231.93 522.43L232.04 522.37C232.14 522.53 232.22 522.61 232.37 522.52L233.81 521.66C233.96 521.56 233.93 521.45 233.83 521.29L233.94 521.23C234.01 521.36 234.09 521.5 234.17 521.63C234.26 521.77 234.35 521.92 234.43 522.04L234.32 522.11C234.22 521.94 234.14 521.86 233.99 521.96L232.55 522.82C232.4 522.91 232.43 523.02 232.53 523.18M231.17 521.02C230.95 520.55 231.03 520.16 231.54 519.93L232.73 519.37C232.88 519.3 232.81 519.15 232.76 519.05L232.88 518.99C232.94 519.13 233 519.28 233.06 519.42C233.12 519.55 233.19 519.68 233.25 519.81L233.14 519.86C233.09 519.75 233.03 519.62 232.88 519.69L231.71 520.24C231.31 520.42 231.24 520.71 231.38 520.99C231.62 521.51 232.09 521.29 232.52 521.09L233.03 520.85C233.47 520.65 233.48 520.59 233.37 520.35L233.48 520.29C233.53 520.42 233.59 520.54 233.64 520.67C233.69 520.77 233.74 520.87 233.79 520.97L233.68 521.02C233.62 520.9 233.56 520.81 233.28 520.94L232.4 521.35C231.9 521.58 231.42 521.56 231.17 521.02M230.73 519.59L230.61 519.63C230.59 519.55 230.56 519.46 230.54 519.39C230.51 519.3 230.47 519.21 230.44 519.12L231.3 517.94L232.3 518.32L232.43 518.33L232.48 518.23L232.45 518.14L232.56 518.1C232.6 518.22 232.64 518.35 232.68 518.46C232.71 518.57 232.76 518.69 232.8 518.8L232.68 518.84C232.61 518.61 232.51 518.55 231.54 518.18L230.84 519.2C230.75 519.32 230.68 519.46 230.73 519.59M230.38 518.57L230.27 518.61C230.22 518.47 230.17 518.31 230.12 518.15C230.07 518.01 230.01 517.86 229.96 517.71L230.07 517.67C230.14 517.85 230.2 517.95 230.37 517.89L231.95 517.35C232.12 517.29 232.11 517.17 232.05 516.99L232.17 516.95C232.22 517.1 232.26 517.25 232.31 517.4C232.36 517.55 232.43 517.71 232.48 517.85L232.36 517.89C232.3 517.71 232.24 517.62 232.07 517.68L230.48 518.22C230.31 518.28 230.32 518.39 230.38 518.57M229.67 516.87L231.2 515.11L229.95 515.39C229.62 515.47 229.55 515.53 229.62 515.83L229.5 515.85C229.47 515.72 229.44 515.57 229.41 515.44C229.38 515.3 229.34 515.17 229.31 515.03L229.43 515.01C229.5 515.33 229.69 515.29 230.03 515.21L231.32 514.91C231.53 514.87 231.49 514.63 231.47 514.55L231.59 514.52C231.61 514.61 231.62 514.71 231.64 514.8C231.66 514.88 231.69 514.98 231.71 515.06L230.32 516.65L231.54 516.38C231.87 516.3 231.85 516.19 231.8 515.98L231.92 515.96C231.94 516.08 231.97 516.22 232 516.35C232.03 516.47 232.06 516.59 232.09 516.71L231.97 516.73C231.93 516.55 231.9 516.46 231.66 516.52L229.69 516.97ZM229.21 514.24C229.19 514.09 229.17 513.93 229.14 513.78L229.27 513.77L229.27 513.82C229.28 513.92 229.33 514.02 229.41 514.01L229.56 513.96L230.02 513.75L229.94 513.06L229.62 513.01C229.56 513 229.39 512.97 229.31 512.98C229.19 512.99 229.19 513.13 229.2 513.2L229.2 513.25L229.08 513.27C229.07 513.13 229.06 512.99 229.04 512.85C229.03 512.75 229.01 512.63 228.99 512.52L229.12 512.51C229.14 512.71 229.25 512.76 229.35 512.78L231.15 513.15L231.31 513.18L231.38 513.16L231.55 513.45L229.61 514.3C229.4 514.39 229.35 514.46 229.37 514.68L229.25 514.69C229.24 514.54 229.22 514.39 229.21 514.24M228.95 511.01L229.07 511.01C229.08 511.23 229.08 511.38 229.41 511.38L230.57 511.39L230.58 509.75L229.42 509.74C229.09 509.74 229.08 509.89 229.08 510.11L228.95 510.11C228.95 509.91 228.97 509.74 228.97 509.56C228.97 509.36 228.96 509.17 228.96 508.97L229.08 508.97C229.09 509.18 229.09 509.34 229.43 509.34L231.82 509.35C232.16 509.36 232.16 509.2 232.17 508.98L232.29 508.99C232.29 509.18 232.28 509.36 232.28 509.55C232.28 509.73 232.28 509.92 232.29 510.13L232.16 510.12C232.16 509.91 232.15 509.75 231.82 509.75L230.78 509.75L230.77 511.39L231.81 511.4C232.14 511.4 232.15 511.25 232.16 511.03L232.28 511.03C232.27 511.25 232.27 511.44 232.27 511.63C232.27 511.81 232.27 511.99 232.27 512.17L232.15 512.17C232.15 511.95 232.14 511.8 231.81 511.8L229.41 511.78C229.08 511.78 229.07 511.94 229.07 512.15L228.94 512.15C228.95 511.97 228.95 511.78 228.95 511.6C228.95 511.41 228.95 511.22 228.95 511.01M230.49 501.36C230.73 501.46 230.89 501.53 230.95 501.56L231.33 500.68L231.68 500.82L231.49 501.26C231.58 501.24 231.67 501.23 231.77 501.23C231.87 501.24 231.96 501.26 232.05 501.3C232.28 501.39 232.43 501.56 232.52 501.8C232.61 502.03 232.6 502.27 232.5 502.51C232.4 502.75 232.23 502.92 232 503.02C231.76 503.12 231.54 503.12 231.31 503.03C231.22 502.99 231.14 502.94 231.07 502.87C231 502.8 230.94 502.73 230.9 502.64L230.71 503.07L230.37 502.93L230.74 502.05L230.7 502.04C230.49 501.95 230.37 501.95 230.21 502.01ZM231.24 499.65L232.21 500.06L232.43 499.56L232.78 499.71L232.56 500.22L233.8 500.75L233.6 501.21L231.46 500.3C231.31 500.23 231.13 500.28 230.94 500.35ZM234.79 501.12L233.95 503.08C233.91 503.19 233.85 503.25 233.77 503.29C233.7 503.32 233.61 503.31 233.5 503.26L233.06 503.07C232.91 503.01 232.73 503.07 232.56 503.13L232.86 502.42L233.61 502.74L233.66 502.75L233.7 502.71L234.44 500.97ZM236.17 493.11L236.2 493.09L236.24 493.11L236.74 493.56C236.87 493.68 236.96 493.78 237.01 493.85C237.06 493.93 237.09 494 237.11 494.09L237.47 493.69L237.75 493.95L236.69 495.11L237.16 495.54L237.9 494.72L237.93 494.7L237.96 494.71L238.97 495.62L238.61 496.01L237.89 495.36L237.86 495.35L237.83 495.36L236.32 497.04L236.04 496.78L236.78 495.96L236.31 495.53L235.25 496.7L234.97 496.45L236.77 494.46C236.75 494.36 236.7 494.28 236.64 494.2C236.58 494.12 236.48 494.03 236.36 493.91L236.2 493.77L236.14 493.74L236.08 493.78L234.52 495.5L234.24 495.25ZM240.87 489.76C240.95 489.53 241.1 489.34 241.34 489.22C241.57 489.09 241.81 489.06 242.05 489.12C242.3 489.19 242.48 489.33 242.6 489.55C242.72 489.76 242.73 489.99 242.65 490.23C242.57 490.47 242.41 490.65 242.18 490.78C241.95 490.9 241.71 490.93 241.46 490.87C241.22 490.81 241.04 490.67 240.92 490.45C240.8 490.23 240.79 490 240.87 489.76M243.03 488.22L244.87 491.64L244.43 491.88L243.91 490.93C243.86 491.02 243.79 491.1 243.69 491.17C243.6 491.24 243.46 491.32 243.28 491.42L241.52 492.36L241.34 492.03L242.32 491.5C242.22 491.33 242.11 491.19 241.87 491.13L242.51 490.78L242.77 491.26L243.25 491C243.39 490.92 243.5 490.85 243.57 490.78C243.64 490.72 243.69 490.65 243.73 490.58L242.8 488.87C242.73 488.73 242.56 488.64 242.36 488.58ZM250.55 486.94L250.51 486.73L250.48 486.67L250.41 486.66L248.12 487.03L248.06 486.66L250.91 486.2L250.94 486.2L250.96 486.23L251.07 486.91C251.1 487.08 251.11 487.22 251.1 487.3C251.09 487.39 251.06 487.47 251.02 487.54L251.55 487.46L251.61 487.83L250.06 488.09L250.16 488.71L251.25 488.53L251.29 488.54L251.3 488.57L251.52 489.9L251 489.99L250.84 489.03L250.83 489L250.79 488.99L248.56 489.35L248.5 488.98L249.6 488.8L249.5 488.18L247.94 488.43L247.88 488.05L250.53 487.62C250.57 487.54 250.59 487.44 250.59 487.34C250.59 487.24 250.57 487.11 250.55 486.94M256.27 486.73C256.52 486.56 256.8 486.5 257.1 486.55C257.38 486.6 257.61 486.73 257.78 486.94C257.96 487.15 258.04 487.39 258.03 487.66L258.6 487.75L258.73 487.03C258.76 486.85 258.69 486.69 258.56 486.51L259.31 486.64L258.63 490.46L258.13 490.37L258.53 488.13L257.96 488.03C257.87 488.26 257.7 488.45 257.47 488.57C257.24 488.7 256.99 488.74 256.73 488.7C256.42 488.64 256.18 488.49 256 488.25C255.82 488 255.76 487.73 255.81 487.43C255.87 487.13 256.02 486.9 256.27 486.73M263.1 490.32L263.79 489.1C263.88 488.94 263.86 488.73 263.81 488.54L265.34 489.4L265.15 489.73L264.29 489.25L263.52 490.62L263.51 490.69L263.55 490.74L264.25 491.13C264.35 491.19 264.45 491.23 264.53 491.26C264.61 491.29 264.68 491.31 264.74 491.31L265.63 489.72C265.69 489.62 265.72 489.45 265.66 489.24L266.26 489.58L265.67 490.64L265.94 490.8L266.33 490.11C266.39 490.01 266.42 489.84 266.36 489.63L266.96 489.97L265.06 493.35L264.64 493.12L265.76 491.13L265.48 490.97L264.36 492.96L263.94 492.73L264.55 491.64C264.47 491.63 264.38 491.61 264.28 491.56C264.18 491.52 264.06 491.46 263.92 491.38L263.29 491.03C263.14 490.94 263.05 490.84 263.02 490.73C262.99 490.61 263.01 490.48 263.1 490.32M269.31 495.09L271.04 497.05L271.06 497.11L271.03 497.17L270.02 498.06L269.67 497.67L270.43 497L270.45 496.97L270.43 496.94L269.03 495.34ZM269.93 494.04C270 493.98 270.07 493.93 270.16 493.9C270.24 493.86 270.32 493.85 270.41 493.84C270.41 493.84 270.31 493.72 270.1 493.49L270.39 493.24L271.01 493.96L271.06 493.91C271.17 493.82 271.25 493.69 271.26 493.51L271.73 494.04L271.37 494.36L272 495.08L271.72 495.33L271.41 494.97C271.39 495.06 271.36 495.14 271.32 495.22C271.27 495.3 271.22 495.37 271.15 495.43C270.97 495.59 270.75 495.65 270.5 495.63C270.26 495.61 270.05 495.5 269.88 495.31C269.72 495.12 269.64 494.9 269.64 494.65C269.65 494.4 269.75 494.2 269.93 494.04M272.25 495.42C272.39 495.31 272.42 495.15 272.43 494.93L272.93 495.5L272.33 496.03L272.69 496.44L272.38 496.72L272.01 496.31L271.22 497L270.89 496.62ZM274.19 501.29C274.34 501.23 274.42 501.11 274.49 500.94L274.76 501.59L273.32 502.18L273.47 502.55L274.52 502.12C274.68 502.06 274.76 501.93 274.83 501.77L275.1 502.42L273.65 503.01L274.17 504.28L273.82 504.43L272.42 500.99L272.77 500.84L273.13 501.72ZM275.54 500.16L276.61 502.79L276.62 502.83L276.59 502.85L275.45 503.31C275.19 503.41 274.98 503.48 274.8 503.52C274.63 503.55 274.47 503.55 274.32 503.53L274.13 503.07C274.29 503.09 274.45 503.08 274.63 503.04C274.81 503 275.03 502.92 275.3 502.81L276.01 502.52L276.06 502.48L276.05 502.41L275.19 500.31ZM277.24 509.12C277.62 509.11 277.91 509.4 277.92 509.82C277.93 510 277.89 510.17 277.81 510.33L277.31 510.41L277.31 510.31C277.64 510.22 277.81 510.09 277.8 509.79C277.79 509.48 277.54 509.41 277.39 509.42C277.19 509.42 277.07 509.52 276.91 509.8C276.66 510.26 276.48 510.38 276.11 510.4C275.79 510.41 275.48 510.18 275.47 509.83C275.46 509.67 275.5 509.48 275.5 509.35L275.96 509.29L275.97 509.38C275.78 509.43 275.58 509.53 275.59 509.79C275.6 510.01 275.77 510.14 275.99 510.13C276.21 510.13 276.3 510.06 276.51 509.66C276.74 509.22 276.94 509.13 277.24 509.12M253.36 484.25C238.73 484.25 226.87 496.11 226.87 510.75C226.87 525.38 238.73 537.24 253.36 537.24C268 537.24 279.86 525.38 279.86 510.75C279.86 496.11 268 484.25 253.36 484.25M264.92 529.73L264.76 529.84L265.25 530.66L265.38 530.58C265.67 530.4 265.76 530.17 265.57 529.86C265.42 529.6 265.18 529.57 264.92 529.73M276.38 514.84C275.81 514.72 275.31 514.85 275.2 515.38C275.17 515.5 275.14 515.7 275.12 515.82L276.8 516.18C277.07 516.24 277.12 516.11 277.16 515.92C277.24 515.54 277.2 515.01 276.38 514.84M270.47 495.18C270.59 495.18 270.7 495.13 270.8 495.04C270.9 494.96 270.96 494.85 270.98 494.73C271.01 494.61 270.98 494.51 270.91 494.42C270.84 494.34 270.74 494.3 270.61 494.3C270.48 494.31 270.37 494.35 270.27 494.44C270.18 494.52 270.11 494.63 270.09 494.75C270.07 494.87 270.09 494.98 270.17 495.06C270.24 495.15 270.34 495.19 270.47 495.18M231.09 513.28L231.09 513.27L230.1 513.09L230.17 513.69ZM262.84 530.81C262.4 531.02 262.44 531.55 262.66 532.02C262.93 532.6 263.44 532.9 263.83 532.72C264.29 532.5 264.22 531.96 264 531.49C263.71 530.89 263.23 530.62 262.84 530.81M255.28 532.83C254.79 532.87 254.64 533.38 254.68 533.9C254.73 534.54 255.11 535 255.53 534.97C256.04 534.92 256.16 534.39 256.12 533.87C256.06 533.2 255.71 532.79 255.28 532.83"/>
</g>
</svg>
